<?xml version="1.0" encoding="utf-8"?>
<!-- Generator: Adobe Illustrator 27.4.0, SVG Export Plug-In . SVG Version: 6.00 Build 0)  -->
<svg version="1.1" id="Layer_1" xmlns="http://www.w3.org/2000/svg" xmlns:xlink="http://www.w3.org/1999/xlink" x="0px" y="0px"
	 viewBox="0 0 79.33 79.33" style="enable-background:new 0 0 79.33 79.33;" xml:space="preserve">
<style type="text/css">
	.st0{fill:#F58220;}
	.st1{fill:#AF5926;}
	.st2{fill:none;}
	.st3{fill:#B05A27;}
</style>
<g>
	<circle class="st0" cx="39.66" cy="39.66" r="37.99"/>
	<g>
		<path class="st1" d="M39.66,78.83C18.07,78.83,0.5,61.26,0.5,39.66S18.07,0.5,39.66,0.5s39.16,17.57,39.16,39.16
			S61.26,78.83,39.66,78.83z M39.66,2.84c-20.31,0-36.83,16.52-36.83,36.83s16.52,36.83,36.83,36.83s36.83-16.52,36.83-36.83
			S59.97,2.84,39.66,2.84z"/>
		<g>
			<path class="st2" d="M39.66,78.83C18.07,78.83,0.5,61.26,0.5,39.66S18.07,0.5,39.66,0.5s39.16,17.57,39.16,39.16
				S61.26,78.83,39.66,78.83z M39.66,2.84c-20.31,0-36.83,16.52-36.83,36.83s16.52,36.83,36.83,36.83s36.83-16.52,36.83-36.83
				S59.97,2.84,39.66,2.84z"/>
			<g>
				<g>
					<g>
						<path class="st3" d="M39.92,5.29c-0.32-0.05-0.2,0.37-0.25,0.44C40.19,5.67,39.9,5.18,39.92,5.29z"/>
						<polygon class="st3" points="45.3,4.82 45.18,4.97 46.04,4.68 						"/>
						<path class="st3" d="M50.23,5.95c-0.26-0.82-1.81-0.35-2.61-0.82l-0.11-0.2l-0.52,0.46C48.05,5.57,49.54,5.55,50.23,5.95z"/>
						<path class="st3" d="M52.18,8.31c-0.05-0.31,0.61-0.03-0.53-0.29c0.04,0.05,0.05,0.07,0.08,0.1
							C51.83,8.16,51.96,8.21,52.18,8.31z"/>
						<path class="st3" d="M51.73,8.12C51.24,7.97,51.95,8.46,51.73,8.12L51.73,8.12z"/>
						<path class="st3" d="M53.96,8.9l-0.71-0.07c0.06,0.21,0.58,0.5,0.33,0.52C54.25,9.52,54.2,9.31,53.96,8.9z"/>
						<path class="st3" d="M54.76,8.71L54.4,8.65C54.42,8.74,54.49,8.8,54.76,8.71z"/>
						<path class="st3" d="M53.63,8.52l0.77,0.12c-0.04-0.15,0.05-0.36-0.34-0.08C54.2,8.41,53.98,8.52,53.63,8.52z"/>
						<path class="st3" d="M53.29,8.24c-0.28-0.32-0.71-0.57,0.02-0.54C52.04,7.32,52.06,7.83,53.29,8.24z"/>
						<path class="st3" d="M50.69,5.33c-0.15-0.13-0.29-0.26-0.45-0.37l-0.52,0.11C49.99,5.01,50.66,5.54,50.69,5.33z"/>
						<path class="st3" d="M57.44,11.22c0.12-0.11,0.02-0.46,0.08-0.65l-0.52-0.11C57.17,10.68,57.54,11.01,57.44,11.22z"/>
						<path class="st3" d="M57.52,10.56l0.78,0.17C57.75,10.36,57.58,10.4,57.52,10.56z"/>
						<polygon class="st3" points="55.22,8.05 53.85,8 55.45,8.15 						"/>
						<polygon class="st3" points="59.75,12.83 59.21,12.86 60.12,12.88 						"/>
						<path class="st3" d="M61.27,13.92c-0.41,0.02-0.01,0.66-0.36,0.58c0.4,0.3,0.88,0.4,1.32,0.49
							C61.84,14.8,61.54,14.49,61.27,13.92z"/>
						<path class="st3" d="M62.94,15.19c-0.2-0.09-0.45-0.14-0.71-0.2C62.43,15.09,62.66,15.16,62.94,15.19z"/>
						<path class="st3" d="M59.33,11.51c-0.01,0.11-0.05,0.37,0.22,0.71l0.01-0.52C59.5,11.64,59.42,11.57,59.33,11.51z"/>
						<path class="st3" d="M59.57,11.68l0,0.02c0.25,0.2,0.42,0.34,0.5,0.4C60,12.04,59.85,11.92,59.57,11.68z"/>
						<path class="st3" d="M59.27,11.46c0.02,0.02,0.04,0.03,0.06,0.05C59.33,11.46,59.33,11.44,59.27,11.46z"/>
						<path class="st3" d="M56.83,9.32c0.5,0.02,1.45,0.3,0.84-0.49C57.25,8.91,57.59,9.36,56.83,9.32z"/>
						<path class="st3" d="M59.28,10.8c-0.2-0.19-0.42-0.34-0.64-0.52c-0.05,0.1-0.01,0.32-0.27,0.3
							C58.68,10.66,58.99,10.71,59.28,10.8z"/>
						<polygon class="st3" points="59.68,10.93 59.28,10.8 59.5,11.01 						"/>
						<path class="st3" d="M62.2,13.98c0.38,0.09,0.67,0.34,1.01,0.6c-0.28-0.37-0.61-0.73-0.94-1.03
							C62.13,13.61,61.83,13.66,62.2,13.98z"/>
						<path class="st3" d="M60.98,12.79c0.02,0.01,0.05,0.02,0.08,0.03C61.04,12.76,61.02,12.73,60.98,12.79z"/>
						<polygon class="st3" points="66.12,17.64 66.13,17.54 66.07,17.57 						"/>
						<path class="st3" d="M62.26,13.44c-0.2-0.3-0.42-0.36-0.65-0.39c0.22,0.14,0.44,0.31,0.66,0.5
							C62.33,13.53,62.36,13.5,62.26,13.44z"/>
						<path class="st3" d="M63.91,15.85c-0.05-0.2-0.14-0.4-0.25-0.59C63.71,15.47,63.8,15.88,63.91,15.85z"/>
						<path class="st3" d="M61.08,12.98c-0.02,0-0.04-0.01-0.05-0.02C61.06,13.11,61.07,13.06,61.08,12.98z"/>
						<path class="st3" d="M61.08,12.98c0.18,0.06,0.36,0.06,0.53,0.07c-0.19-0.1-0.38-0.18-0.55-0.23
							C61.07,12.87,61.08,12.93,61.08,12.98z"/>
						<path class="st3" d="M69.07,16.97c-0.37,0.2-1.17-0.39-1.44-1.25c-0.78-0.42-1.38,0.86-1.49,1.82
							c0.14-0.09,0.29-0.22,0.95,0.29c0.04-0.39-0.78-1.7-0.05-1.42c0.89,0.68,0.45,0.79,0.62,1.33c0.11-0.67,1.41,0.68,1.85,0.06
							l-0.8-0.64C68.79,17.08,69.15,17.26,69.07,16.97z"/>
						<path class="st3" d="M65.14,16.39l-0.26-0.21c0.2,0.32,0.26,0.63,0.36,1.19c0.51,0.27,0.7,0.26,0.82,0.2l-1.04-1.23
							L65.14,16.39z"/>
						<path class="st3" d="M63.88,15.11c0.51-0.15,1.15,0.34,1.16-0.36c-0.71-0.69-0.75-0.22-1.31-0.49
							c1.24,0.98-0.5-0.13,0.17,0.81c-0.28-0.15-0.5-0.32-0.7-0.48c0.17,0.23,0.32,0.45,0.46,0.68c0-0.02,0-0.03-0.01-0.04l-0.01,0
							l0.01,0c-0.01-0.08-0.01-0.12,0.03-0.05c0.01,0,0.02,0.01,0.03,0.02C63.76,15.14,63.82,15.13,63.88,15.11
							c0.27,0.37-0.03,0.13-0.17,0.07c-0.02,0.01-0.04,0.02-0.06,0.03l0,0.01c0.45,0.28,0.81,0.64,1.23,0.96
							C64.7,15.9,64.44,15.58,63.88,15.11z"/>
						<path class="st3" d="M58.89,8.49c0.02,0.06,0.01,0.08-0.01,0.11C59,8.61,59.06,8.6,58.89,8.49z"/>
						<path class="st3" d="M59.33,9.06c-0.13-0.01-0.31,0.08-0.62-0.15c-0.22-0.28,0.11-0.17,0.17-0.3
							c-0.26-0.03-0.86-0.16-0.35,0.4l0.13,0.01c0.48,0.47,0.89,1.34,0.76,1.33C59.49,9.92,59.5,9.61,59.33,9.06z"/>
						<path class="st3" d="M61.9,11.94c0.41,0.2,0.77,0.46,1.15,0.7l-0.27-0.75l-0.12,0.2C62.14,11.53,62.08,11.87,61.9,11.94z"/>
						<path class="st3" d="M66.05,17.88l-0.46,0.17c0.34,0.03,0.63,0.11,0.95,0.17L66.05,17.88z"/>
						<polygon class="st3" points="67.1,19.18 66.74,19.37 67.2,19.58 						"/>
						<path class="st3" d="M19.71,73.35l-0.43-0.13C19.48,73.3,19.61,73.34,19.71,73.35z"/>
						<path class="st3" d="M22.45,74.86l0.15-0.14C22.42,74.75,22.33,74.8,22.45,74.86z"/>
						<path class="st3" d="M68.82,57.7c-0.6,0.28-1.39,0.47-0.98,0.66l0.45,0.1C68.42,58.09,68.61,57.86,68.82,57.7z"/>
						<path class="st3" d="M46.93,75.86c0.06,0.03,0.13,0.07,0.2,0.1c0.11-0.18,0.21-0.35,0.3-0.51
							C47.28,75.59,47.11,75.74,46.93,75.86z"/>
						<path class="st3" d="M46.85,77.69l-0.85-0.15C46.19,77.61,46.46,77.66,46.85,77.69z"/>
						<path class="st3" d="M6.97,62.08c-0.22-0.05-0.45-0.1-0.66-0.17C6.77,62.57,6.76,62.14,6.97,62.08z"/>
						<path class="st3" d="M73.72,34.76c-0.1,0.49-0.11,0.87-0.08,1.2C73.8,35.38,74.1,34.86,73.72,34.76z"/>
						<path class="st3" d="M22.99,69.96c-0.24-0.05-0.37-0.03-0.41,0.06C22.83,70.08,22.98,70.08,22.99,69.96z"/>
						<path class="st3" d="M73.73,37.33c0.04-0.09,0.06-0.17,0.09-0.26c-0.1-0.34-0.14-0.68-0.18-1.1
							C73.52,36.4,73.4,36.89,73.73,37.33z"/>
						<path class="st3" d="M17.69,7.09c0.05-0.01,0.1-0.03,0.15-0.03C17.82,7.01,17.76,7.04,17.69,7.09z"/>
						<path class="st3" d="M35.01,5.09c-0.15,0.05-0.41,0.09-0.65,0.13C34.49,5.23,34.68,5.2,35.01,5.09z"/>
						<path class="st3" d="M70.4,24.99C70.22,24.69,70.33,24.96,70.4,24.99L70.4,24.99z"/>
						<path class="st3" d="M71.16,22.63c0.08,0.05,0.16,0.07,0.25,0.03C71.31,22.69,71.23,22.67,71.16,22.63z"/>
						<path class="st3" d="M76.49,40.93c0,0.01,0,0.02,0,0.03C76.58,40.85,76.56,40.87,76.49,40.93z"/>
						<path class="st3" d="M70.34,24.43c0.01,0.14,0.04,0.3,0.08,0.46C70.42,24.81,70.4,24.67,70.34,24.43z"/>
						<path class="st3" d="M70.19,24.58c-0.04-0.12-0.07-0.21-0.1-0.3C70.01,24.28,69.99,24.34,70.19,24.58z"/>
						<path class="st3" d="M70.63,25.42c-0.09-0.18-0.16-0.36-0.21-0.53c0,0.08-0.01,0.11-0.03,0.1
							C70.45,25.08,70.51,25.21,70.63,25.42z"/>
						<path class="st3" d="M1.89,34.66c0.02-0.02,0.03-0.05,0.05-0.08C1.82,34.17,1.83,34.35,1.89,34.66z"/>
						<path class="st3" d="M66.04,68.09c0.01-0.02,0.01-0.03,0.02-0.05c-0.02,0.01-0.04,0.02-0.05,0.03L66.04,68.09z"/>
						<path class="st3" d="M65.19,69.3c0.1-0.82,0.4-1,0.82-1.23l-1.19-0.61C64.95,68.07,65.08,68.68,65.19,69.3z"/>
						<path class="st3" d="M13.61,69.05l0.51,0.98c-1.34-0.35-1.89-1.14-1.52-0.07c0.52-0.47,1.25,0.23,2.08,0.81
							c0.83,0.58,1.66,1.16,2.11,0.65l0.38,0.64c-0.15-0.13-0.22-0.08-0.37-0.21c0.69,1.33,1.35-0.23,2.65,0.8
							c0.44,0.39,0.69,0.77,0.27,0.7l1.28,0.38c0.31,0.21,0.12,0.38-0.19,0.16c0.59,0.3,1.22,0.53,1.83,0.79l-0.03,0.03
							c0.35-0.07,1.06-0.09,1.4-0.08c0.37,0.39-0.28,0.02-0.24,0.23c0.37,0.05,0.74,0.12,1.11,0.16c0.14,0.24-0.03,0.36-0.33,0.38
							c-0.29,0-0.69-0.12-1.03-0.3c0.18,0.84,0.43,0.87,0.84,0.88c0.42-0.01,0.99-0.04,1.9,0.72l-1.05-0.2
							c0.36,0.95,1.24,0.98,2.24,1.85c-0.22-0.34-1.87-1.97-0.62-1.87c0.28,0.21,0.69,0.42,1.38,0.36
							c-0.14,0.46,0.51,0.51,1.29,0.68l-0.22,0.6c0.89,0.04,0.9-0.29,1.45-0.45c0.9,0.3,1,0.84,1.14,1.27
							c1.51,0.34-0.9-0.94,0.92-0.78c0.6,0.22,1.14,0.3,1.72,0.3c0.58,0,1.19-0.04,1.95-0.22c0.86,0.27-0.18,0.38,0.12,0.58
							l0.82-0.47c0.19,0.02,0.12,0.18,0.08,0.25c0.67-0.16,0.09-0.64,1.11-0.76c0.15-0.36,0.65-0.04,1.3,0.19
							c0.65,0.21,1.44,0.41,2.05-0.02c0.32,0.17-0.13,0.4-0.02,0.64c1.72-0.61,1.49-0.43,2.8-1.35l1.26,0.23
							c-0.96-0.34,0.09-1.07,0.93-1.68c-0.35-0.18-0.64-0.34-0.82-0.41c0.48-0.18,0.95-0.37,1.4-0.62c0.2,0.06,0.1,0.31-0.08,0.63
							c0.09-0.08,0.17-0.15,0.24-0.22c0.58,0.1,0.39,0.52,0.08,0.97c-0.21-0.08-0.42-0.16-0.62-0.25c-0.3,0.44-0.58,0.92-0.43,1.27
							c0.09-0.09,0.27-0.18,0.48-0.25c-0.08,0.12-0.13,0.22-0.07,0.28c0.07,0.05,0.21-0.09,0.42-0.32l0.5,0.61l0.02-0.3l2.15-0.09
							c0.32-0.27,0.61-0.55,0.91-0.84c0.28-0.32,0.57-0.65,0.88-0.97c0.61-0.66,1.34-1.23,2.32-1.82c-0.3,0.73,0.22,0.84,0.44,1.42
							c-0.84-0.35-1.61,0.9-2.82,1.21c0.62-0.16,0.59,0.17,0.47,0.33l1.86-1.32c0.15,0.49,0.59,0.2,1.19,0.12
							c-0.79-0.73,1.2-1.32,1.85-1.97c0.21,0.27,0.17,0.67-0.85,1.07c1.43,0.13,0.87-1.68,2.15-1.74c-0.22,0.14-0.37,0.17-0.37,0.38
							c0.38-0.58,1.78-1.15,1.63-0.72l-0.22,0.14c0.39-0.2,0.88-0.48,1.37-0.79c0.49-0.33,0.96-0.75,1.39-1.14
							c0.85-0.79,1.48-1.54,1.29-1.96c0.09,0.07,0.49,0.94,0.5,1.14c0.2-1.42,0.3-2.84,0.37-4.18c0.3,0.71,2.3,1.25,1.5,2.53
							c0.37-0.22,0.89-0.45,1.31-1.29c-0.27,0.15-1.23-0.23-1.02-0.55c1.3-0.21,0.8-0.23,2.2-0.75c-0.41,0.21-0.93-0.91-0.47-1.37
							c0.06,0.19,0.9,0.7,0.82,0.96c0.1-0.66,0.19-1.32,0.21-2c-0.09,0.46,0.7,0.66,1.18,0.55c-0.28,0.01,0.9-1.17,1.08-1.6
							l-0.64,0.42c1.31-1.43-0.23-2.43,0.78-3.93c0.09,0.3,0.93,1.22,1.56,0.46c-0.15-0.34-0.46-1.08-0.79-1.95
							c-0.33-0.88-0.6-1.83-0.47-2.62l0.43-0.13c0.06-0.41,0.13-0.81,0.13-1.23c0.3,0.52,0.58,1.41,0.84,2.4
							c0.25,0.98,0.44,2.06,0.47,2.78c0.56-0.52,0.43,0.01,0.88-0.98c0.44-0.21,0.16,0.75,0.03,1.05l1.3-2.22
							c-0.33-0.09-0.27-0.6-0.21-1.1c0.04-0.51,0.07-1.02-0.21-1.08c-0.06,0.95-0.29,1.84-0.47,2.78c-0.33-0.1-0.58-0.66-0.66-1.37
							c-0.05-0.7-0.02-1.59,0.33-2.38c0.4-0.32,1.01,0.73,1.22,0.79c-0.13-0.3,0.16-1.73,0.37-1.83l0.08,0.83
							c0.29-0.43,0.22-0.88,0.2-1.33c-0.03-0.46-0.06-0.93,0.41-1.42c0.14-0.38,1.15-0.98,0.78-1.14c-0.92,0.48-3.24-0.02-3.7-0.55
							c0.04-0.06,0.35-0.49,0.7-0.96c0.38-0.47,0.67-1,0.91-1.19c0.69-0.54,1.26,1.22,1.85,0.77c-0.18-0.06-0.34-0.46-0.39-0.63
							c0.22-0.39,0.53,0.27,0.59-0.66c-0.65-0.26,0.34-1.85-0.5-0.52c-0.08-0.91,0.33-0.92,0.36-1.98c-0.46,0.29-1.45-1.06-1.6-1.91
							c0.17,0.06,0.41-0.13,0.51-0.22c0.04-0.45,0.09-0.84,0.15-1.21c0.03-0.37,0.05-0.71,0.08-1.05c0.05-0.68,0.1-1.34,0.06-2.18
							c0.16-0.17,0.3-1,0.62-0.69c-0.15-0.23-0.42-0.43-0.51-0.94c0.43-1.08,0.27,1.15,0.85,0.3c-0.4-0.02-0.75-1.29-1.11-1.98
							c-0.57,0.33,0.14,1.7,0.5,2.42c-0.84,0.08-1.91-1.07-2.55-2.64c-0.45-1.27,0.41-0.68,0.26-0.88
							c-0.25-1.25-0.74-1.68-1.16-2.06c-0.42-0.38-0.74-0.71-0.83-1.76c0.22-0.95,1-0.39,1.3-0.69c0.29,0.49,0.36,0.92,0.38,1.32
							c-0.01,0.4-0.05,0.76,0.05,1.12l0.01-0.97c0.26,0.29,0.58,0.98,0.53,1.42c0.35-0.84-1.13-4.22-1.62-6.21
							c-0.32-0.25-0.75-0.72-0.82-0.37l0.34,0.54c-0.15,0.7-1.05-0.8-0.89-0.01c-0.32-0.31-0.68-0.61-1-0.98
							c-0.16-0.18-0.31-0.39-0.43-0.61c-0.15-0.21-0.28-0.45-0.37-0.73l0.42-0.49c-0.14,0.11,0.08,0.83,0.41,1.02
							c-0.48-0.27-0.22-1.95-1.18-1.99l0.06,0.91c-0.71-0.54-1.7-1.07-2.18-1.94c-0.23,0.71,0.2,0.15,0.03,1.11
							c0.42-1.01,1.27,2.18,1.55,0.85c-0.35,1.05,0.4,1.23,0.19,2.41c0.17-0.12,0.2-0.48,0.47,0.31c0.07,0.01,0.17,0.05,0.24,0.08
							c0,0.03,0.01,0.03,0.01,0.06l0-0.05c0.04,0.02,0.05,0.02,0-0.02c-0.01-0.22,0.02-0.41,0.09-0.52c0.59,0.16,1.17,1.38,1.59,1.7
							c0.13,0.49-0.3-0.1-0.38,0.24c0.21,0.15,0.42,0.31,0.6,0.48c-0.39,0.24-0.24,1.52-0.88,0.52l0.34,0.98
							c-0.03,0.66,0.18,1.47,0.51,1.9c0.03,0.5,0.78,1.06,0.34,0.74l0.68,1.51l-0.11,0.04c0.23,0.78,0.46,1.58,0.7,2.42
							c0.21,0.84,0.4,1.74,0,2.69c0.14,0.53,0.31,1.09,0.23,2.01l-0.38,0.18c0.18,0.7-0.48,2.06-0.07,2.37
							c-0.27,0.17-0.43,0.46-0.52,0.82c-0.08,0.36-0.11,0.78-0.17,1.22c-0.09,0.88-0.07,1.84-0.25,2.42l0.49,0.14
							c-0.18,0.82-0.28,1.62-0.33,2.69l0.45,0.06c0.18,1.02-1.03,2.15-1.46,3.51c-0.13-0.16,0.04-0.48,0.23-0.69
							c-0.38,0.31-0.61,0.69-0.75,1.11c-0.17,0.41-0.28,0.84-0.37,1.29c-0.2,0.88-0.31,1.82-1.05,2.31c-0.06,0.41-0.26,0.63-0.5,0.8
							c0.02-0.03,0.03-0.06,0.03-0.09c-0.03,0.03-0.06,0.08-0.09,0.13c-0.16,0.11-0.32,0.21-0.48,0.34
							c0.18-0.08,0.33-0.17,0.44-0.26c-0.15,0.26-0.34,0.68-0.47,1.12l-0.5-0.1c-0.01,0.03-0.03,0.06-0.04,0.1
							c-0.37,0.27,0.01,0.43,0.43,0.43c-0.04,0.24-0.1,0.45-0.1,0.65c-0.85-0.16-0.5,1.11-1.46,1c0.07,0.24-0.21,0.74-0.44,1.27
							c-0.27,0.5-0.51,1.03-0.27,1.4c-0.09-0.06-0.22,0-0.06-0.18c-0.42,0.31-0.83,0.62-0.96,1.13l-0.59-0.27
							c-0.04,0.47-0.11,0.93-0.2,1.37c-0.77,0.19-1.11,0.21-0.95-0.57c-0.7,1.6-0.76,1.08-1.33,2.54l-0.2-0.35
							c-0.38,0.3-0.69,1.2-1.13,1.12c-1.25,0.14-4.59,3-7.47,3.46c0.48,0.41,0.14,0.45-0.3,0.46c-0.45-0.01-0.97-0.03-0.86,0.41
							c-0.25-0.2-0.67-0.21-0.34-0.59c-1.24,0.72-2.09,0.36-2.83,1.29c-0.23-0.23,0.18-0.46,0-0.58c-0.09,0.08-0.37,0.34-0.55,0.22
							c-0.18-0.12,0.14-0.27,0.32-0.44c-1.35,0.39-1.3,1.26-1.22,2.06c-0.41-0.09-0.69-0.1-0.93,0c-0.24,0.07-0.44,0.24-0.66,0.54
							c-0.31-0.22-0.78-0.42,0.11-0.65c-0.52,0.03-3.13,0.11-3.12,0.72c-0.18-0.15-0.72-0.01-0.85,0.07
							c-1.16,0.02-1.26-0.03-2.4,0.09l0.32,0.09c-0.44,0.82-0.95,0.17-1.88,0.22l0.03-0.08c-1.04-0.33-1.27-0.28-1.5-0.23
							c-0.22,0.02-0.47,0.14-1.45-0.36l0.06,0.49c-0.33,0.99-1.76-0.88-3-0.68c0.12,0.12,0.25,0.22,0.38,0.34
							c-0.75,0.25-1.49-1.81-2.06-2.07c-0.11-0.12,0.25-0.08,0.45-0.1c-1.45-1-0.37,0.55-1.63,0.38c-0.12-0.39,0.53-0.73-0.25-1.04
							c-0.15-0.2-0.8-0.15-1.54-0.18c-0.73-0.05-1.58-0.09-1.96-0.67c0.12,0.35,0.25,0.7-0.36,0.62c-0.87-0.34-1.77-1.91-2.86-1.6
							c-0.06-0.12-0.07-0.2-0.04-0.26c-0.69-0.17-2.1-0.86-2.71-0.71c0.18-0.86-0.76-1.35-1.7-1.77c-0.96-0.4-1.79-0.86-1.28-1.44
							l-1.63-1.37l0.15-0.07c-0.91-1-1.44-1.15-2.06-1.25c-0.14-0.31,0.13-0.23,0.2-0.26c-1.14-1.66-1.2-1.81-2.85-2.7l0.3-0.43
							c-0.26-0.1-0.55-0.78-0.86-1.65c-0.31-0.87-0.84-1.81-1.5-2.56c0.06-0.01,0.16-0.02,0.29,0.09c-0.71-0.86-1.04-2.17-1.26-3.28
							c-0.21-1.13-0.49-2.01-1.49-2.11c-0.33-0.4-0.55-0.84-0.83-1.28c0.34,1.89-0.82-0.06-0.91,0.79c-0.3-0.73,0.03-2.06,0.35-1.18
							L4.75,49c1,0.08-0.29-2.38,0.39-2.47c-0.76-3.65-0.29-7.3,0.05-10.67c-0.26,0.1-0.53,0.21-0.78,0.32
							c0.05-0.4,0.14-0.8,0.21-1.2c0.22-0.29,0.63-0.34,0.47,0.5c0.48-0.39-0.13-1.46-0.28-1.52c0.55-1.61,0.74,0.79,0.84,0.28
							l0.05-0.69L5.6,33.68c-0.19-0.6-0.57-0.73-0.26-1.73c0.31-0.6,0.52-0.22,0.61-0.46c0.05,0.01,0.1-0.06,0.12-0.37l0.43-1.44
							l-0.7,0.42c-0.12-0.74,0.4-1.38-0.42-0.89c0.63-0.36,1.23-1.65,1.69-2.94c0.54-1.26,1.09-2.47,1.35-2.69
							c0.01-0.26,0.04-0.51,0.1-0.76c0.07-0.23,0.17-0.46,0.28-0.68c0.22-0.45,0.51-0.89,0.83-1.38c-0.25,0.18-0.9,0-0.3-0.84
							c0.48,0.53,0.8,0.19,1.25-0.24c0.44-0.43,0.94-1,1.56-1.03c-0.47,0.09-0.08-0.49,0.26-1.07c0.34-0.57,0.7-1.06-0.04-0.94
							c0.65-0.55,0.42,0.29,1.08,0.03c0.92-1.85,3.23-2.91,5.02-4.49c-0.08-0.16-0.57-0.13-0.31-0.65l1.55-0.06
							c0.34-0.34-0.25-1.14,0.85-1.08c-0.19-0.06-0.47-0.15-0.22-0.36c2.26-0.93,4.31-2.23,6.59-3.19c1.14-0.45,2.28-0.95,3.52-1.12
							c0.61-0.11,1.22-0.19,1.83-0.23c0.61-0.05,1.25,0.06,1.87,0.15c-0.7-0.24-0.28-0.34,0.22-0.42c-0.33-0.03-0.06-0.43-0.16-0.66
							c0.71,0.12,1.41,0.21,2.1,0.37c0.31-0.68,2.17-0.15,2.36-0.8l-0.65,0.15c0.86-0.79-1.32-1.59-1.28-2.56
							C36.5,1.95,36.2,2,35.86,1.96c-0.33-0.02-0.71-0.1-1.11-0.18c-0.79-0.15-1.7-0.24-2.44,0.49c-0.41-0.13,0.26-0.35,0.02-0.54
							c-0.36,0.45-0.84,0.69-1.83,0.74l0.08-0.13c-1.31,0.41-2.3,0.51-3.29,0.79c-0.51,0.12-1.02,0.23-1.6,0.37
							c-0.58,0.14-1.24,0.27-1.96,0.58l0.4,0.33c-0.62,0.23-0.81,0.16-1.15,0.19c-0.38,0.98,1.71-0.78,1.4,0.25
							c-0.59-0.25-1.65,0.26-2.68,0.73c-1.02,0.5-1.95,1.09-2.5,0.76c-0.89,0.53,0.55,0.31-0.33,0.84l-0.39-0.11l-0.01,0.45
							c-0.61,0.29-1.07,0.23-1.24,0.03c0.15-0.07,0.34-0.34,0.47-0.46c-0.91,0.24-1.94,1.59-2.24,1.68l0.91-0.45
							c-2.15,1.82-4.86,4.03-6.2,6.47l0.31-0.01c-1,1.82-1.2,1.14-2.42,3.05l0.01-0.1C7.94,18.21,7.74,18.8,7.4,19.3
							c0.08-0.63-0.99,0.65-0.85-0.15c-0.77,2.16-0.31,1.12-0.28,2.8L5.8,22.09c0.08,0.6,0.22,0.72-0.17,1.75
							c0.11-0.96-0.82,0.4-0.76-0.7c-0.44,0.45-0.71,0.9-0.89,1.32c-0.16,0.43-0.2,0.85-0.26,1.21c-0.1,0.74-0.19,1.29-0.94,1.61
							c0.6,1.34,1.24-1.73,1.24-1.09c0.48-0.35,0.42,1.09,0.07,1.73C3.79,28.6,2.48,28.74,2,30.62c0.05-0.18-0.02-0.21,0.03-0.4
							c-0.41,0.65-0.06,1.43-0.58,2.22c0.54,0.6-0.21,1.13,0.55,1.39l0.08-1.75c0.05,1.03,0.83,2.05,0.15,3.56
							c-0.14-0.14-0.28-0.64-0.34-0.98c-0.29,0.44-0.01,0.91-0.27,1.38c-0.82-0.23,0.13-2.11-0.32-3.26
							c-0.41,0.46,0.26,2.09-0.51,1.44c0.48,0.46,0.38,0.92,0.23,1.44c-0.1,0.53-0.23,1.13,0.15,1.8l-0.47-0.11
							c0.06,0.21,0.27,0.65,0.24,1.02l-0.58-0.71c0.48,1.08-0.6,2.05-0.22,3.08c-0.06-1.08,0.08-1.19,0.28-1.16
							c0.19,0.04,0.41,0.22,0.61-0.22c0.71,2.57-1.2,1.52-0.8,4.49c-0.12-0.4,0.2-1.53,0.44-0.92c-0.09,0.57-0.16,1.32-0.35,1.7
							c0.39,1.93,0.44-0.36,0.85,0.42c-0.47,0.74,0.38,0.91,0.69,1.7l-0.47,0.09c0,0.56,0.09,0.87,0.22,1.03
							c0.12,0.17,0.26,0.21,0.39,0.24c0.27,0.06,0.52,0.09,0.58,1.09l-0.86-0.65l0.43,0.96l-0.58-0.07c0.7,0.99,0.61,1.37,0.85,2.47
							c0.24-0.35,0.88-0.14,1.23,0.76c-0.04,0.72-0.56-0.19-0.02,1.08c-0.39-0.18-0.86-0.38-0.65-1.1c-0.17-0.01-0.39-0.19-0.56-0.2
							c-0.06,0.79,0.56,1.75,0.74,2.22c-0.05-0.19-0.11-0.42-0.09-0.56c0.22,0.28,0.43,0.55,0.67,0.82l0.74,0.77
							c-0.03,0.36-0.27,0.2-0.51,0.03c0.23,0.35,0.55,0.51,0.85,1.03C4.38,56.79,4.04,57,3.49,56.3l1.24,1.56
							c-0.1,0.2,0.04,1.12-0.2,0.96c0.38,1.05,2.01,1.91,2.55,3.25c0.11,0.02,0.26,0.09,0.48,0.3c0.36,0.56,0.63,1.15,0.98,1.72
							c0.18,0.28,0.36,0.57,0.61,0.83c0.26,0.25,0.57,0.48,0.93,0.68l0.09,1.14c0.96,0.81-0.17-1.5,1.41-0.16
							c1.14,0.91-0.07,0.83,0.16,1.33c0.8,0.25,2.2,0.55,2.81,1.88C14.14,69.6,13.95,69.29,13.61,69.05z M26.8,76.46
							c-0.31,0-0.97,0.08-1.07-0.26C26.24,75.8,26.38,76.13,26.8,76.46z M49.21,76.25c-0.17,0.21-0.51,0.21-0.91,0.13
							C48.56,76.27,48.85,76.21,49.21,76.25z M72.24,28.42c0.01,0.01,0.02,0.01,0.03,0.02C72.29,29.05,72.29,28.83,72.24,28.42z
							 M72.02,27.22c-0.1-0.09-0.16-0.06-0.21,0.01c0.14,0.03,0.24,0.29,0.32,0.59C72.21,27.7,72.24,27.52,72.02,27.22z M5.82,31.32
							l-0.18,0.2C5.64,30.96,5.73,31.14,5.82,31.32z"/>
						<path class="st3" d="M46.86,77.48c-0.1-0.07-0.14-0.15-0.17-0.24C46.6,77.34,46.61,77.43,46.86,77.48z"/>
						<path class="st3" d="M7.1,62.11l-0.02-0.04c-0.04,0-0.07,0-0.1,0.01L7.1,62.11z"/>
						<path class="st3" d="M77.84,46.36c-0.11,0.26-0.22,0.4-0.33,0.49C77.63,46.88,77.74,46.78,77.84,46.36z"/>
						<path class="st3" d="M68.47,21.92l0.5,0.58c-0.21-0.3-0.19-0.47-0.22-0.67C68.66,21.91,68.6,22.11,68.47,21.92z"/>
						<path class="st3" d="M66.68,14.66c-0.12-0.05-0.18-0.18-0.3-0.23l-0.14,0.18C66.59,14.98,66.97,15.12,66.68,14.66z"/>
						<path class="st3" d="M69.45,20.44c0.29-0.26-0.04-0.65-0.45-1.04c0.02,0.03,0.04,0.05,0.06,0.08
							C68.49,19.67,69,20.03,69.45,20.44z"/>
						<path class="st3" d="M68.91,19.31c-0.12-0.13-0.23-0.26-0.32-0.41C68.36,18.98,68.67,19.09,68.91,19.31z"/>
						<path class="st3" d="M71.2,25.9c-0.02-0.27-0.54,0.07-0.46-0.13C70.16,25.71,72.05,27.05,71.2,25.9z"/>
						<polygon class="st3" points="70.33,19.32 70.02,19.77 70.52,19.82 						"/>
						<path class="st3" d="M72.26,23.43l-0.27-0.89c-0.07,0.05-0.16-0.03-0.26-0.14C71.96,22.92,72.13,23.52,72.26,23.43z"/>
						<path class="st3" d="M71.73,22.41c-0.13-0.26-0.29-0.49-0.45-0.59C71.36,21.95,71.57,22.23,71.73,22.41z"/>
						<polygon class="st3" points="71.11,20.32 71.16,20.6 71.47,21.18 						"/>
						<path class="st3" d="M75.33,32.7l0.29,0.96c0.18,0.07,0.25-0.21,0.12-0.57C75.6,32.87,75.47,32.51,75.33,32.7z"/>
						<path class="st3" d="M75.94,29.41c-0.03,0.3-0.13,0.35-0.25,0.54l0.61-0.13L75.94,29.41z"/>
						<path class="st3" d="M76.81,32.3c0.18,0.06,0.72,1.41,0.48,0.1C77.11,32.32,76.77,31.33,76.81,32.3z"/>
						<polygon class="st3" points="75.88,47.61 75.93,47.36 74.93,47.18 						"/>
						<path class="st3" d="M72.72,61.27c0.87-0.96-0.37-0.6,0.48-1.41c-0.05-0.38-0.7,0.67-0.72,0.3
							C72.31,60.94,71.98,61.21,72.72,61.27z"/>
						<path class="st3" d="M72.49,60.16c0.03-0.12,0.05-0.26,0.07-0.41C72.5,59.97,72.49,60.08,72.49,60.16z"/>
						<polygon class="st3" points="37.69,5.39 38.42,5.57 37.94,5.25 						"/>
						<path class="st3" d="M39.05,4.56l0.18,0.64l0.43-0.61C39.5,4.63,39.18,4.7,39.05,4.56z"/>
						<path class="st3" d="M28.59,78.41l0.1-0.13c-0.08-0.2-0.26-0.26-0.63-0.38L28.59,78.41z"/>
						<polygon class="st3" points="18.5,73.35 18.66,73.47 18.66,72.78 						"/>
						<path class="st3" d="M10.64,67.98c0.24,0.32,0.67,0.53,0.94,0.81C10.86,68.3,11.09,67.38,10.64,67.98z"/>
					</g>
				</g>
			</g>
			<g>
				<g>
					<g>
						<path class="st3" d="M39.97,81.25c-0.38-0.02-0.25,0.39-0.3,0.47C40.31,81.6,39.95,81.14,39.97,81.25z"/>
						<polygon class="st3" points="46.15,79.74 46.07,79.93 46.9,79.38 						"/>
						<path class="st3" d="M51.82,78.46c-0.73-0.53-2,0.64-3.07,0.66L48.54,79l-0.33,0.68C49.43,79.27,50.91,78.51,51.82,78.46z"/>
						<path class="st3" d="M55.31,78.82c-0.29-0.19,0.56-0.46-0.74,0.18c0.08,0,0.1,0.01,0.15,0.02
							C54.84,78.97,55.01,78.91,55.31,78.82z"/>
						<path class="st3" d="M54.72,79.02C54.13,79.26,55.2,79.1,54.72,79.02L54.72,79.02z"/>
						<path class="st3" d="M57.36,77.73l-0.65,0.59c0.22,0.07,0.92-0.22,0.72,0.01C58.15,77.83,57.91,77.76,57.36,77.73z"/>
						<path class="st3" d="M57.84,76.92L57.5,77.2C57.6,77.23,57.71,77.2,57.84,76.92z"/>
						<path class="st3" d="M56.77,77.79l0.73-0.6c-0.16-0.05-0.27-0.26-0.34,0.25C57.14,77.23,57.06,77.49,56.77,77.79z"/>
						<path class="st3" d="M56.26,77.92c-0.48,0.07-1.07,0.18-0.41-0.36C54.43,78.21,54.84,78.63,56.26,77.92z"/>
						<path class="st3" d="M51.87,77.65c-0.21,0-0.41,0.01-0.63-0.02L50.82,78c0.11-0.09,0.4-0.11,0.65-0.14
							C51.72,77.81,51.92,77.75,51.87,77.65z"/>
						<path class="st3" d="M62.11,75.56c-0.04-0.16-0.46-0.2-0.61-0.33l-0.43,0.47C61.39,75.63,61.96,75.39,62.11,75.56z"/>
						<path class="st3" d="M61.5,75.23l0.64-0.7C61.44,74.93,61.37,75.12,61.5,75.23z"/>
						<polygon class="st3" points="57.62,76.14 56.52,77.28 57.87,76.01 						"/>
						<polygon class="st3" points="65.05,73.56 64.83,74.16 65.27,73.18 						"/>
						<path class="st3" d="M66.87,72.08c-0.1,0.49,0.72,0.02,0.52,0.43c0.45-0.48,0.69-1.03,0.91-1.53
							C68,71.42,67.56,71.78,66.87,72.08z"/>
						<path class="st3" d="M68.69,70.18c-0.14,0.23-0.26,0.5-0.39,0.79C68.46,70.74,68.6,70.48,68.69,70.18z"/>
						<path class="st3" d="M63.48,73.73c0.11,0.03,0.36,0.15,0.83-0.08l-0.54-0.13C63.68,73.59,63.58,73.66,63.48,73.73z"/>
						<path class="st3" d="M63.75,73.52l0.02,0c0.32-0.22,0.54-0.38,0.64-0.45C64.32,73.14,64.13,73.27,63.75,73.52z"/>
						<path class="st3" d="M63.4,73.79c0.03-0.02,0.05-0.03,0.07-0.05C63.43,73.72,63.4,73.72,63.4,73.79z"/>
						<path class="st3" d="M59.89,75.4c0.34-0.48,1.13-1.27,0.05-1.03C59.76,74.81,60.39,74.67,59.89,75.4z"/>
						<path class="st3" d="M62.75,73.61c-0.27,0.16-0.58,0.29-0.86,0.43c0.08,0.09,0.32,0.13,0.15,0.37
							C62.28,74.14,62.53,73.9,62.75,73.61z"/>
						<polygon class="st3" points="63.04,73.22 62.75,73.61 63.05,73.43 						"/>
						<path class="st3" d="M67.18,71.01c0.19-0.42,0.52-0.74,0.88-1.11c-0.47,0.31-0.92,0.66-1.32,1.03
							C66.77,71.08,66.75,71.42,67.18,71.01z"/>
						<path class="st3" d="M65.53,72.25c0.02-0.02,0.04-0.05,0.06-0.08C65.52,72.18,65.47,72.2,65.53,72.25z"/>
						<polygon class="st3" points="71.56,66.23 71.45,66.24 71.49,66.3 						"/>
						<path class="st3" d="M66.61,70.93c-0.36,0.22-0.48,0.46-0.57,0.72c0.2-0.24,0.43-0.48,0.69-0.72
							C66.72,70.86,66.7,70.82,66.61,70.93z"/>
						<path class="st3" d="M69.58,69.05c-0.21,0.11-0.44,0.23-0.68,0.35C69.16,69.36,69.61,69.18,69.58,69.05z"/>
						<path class="st3" d="M65.77,72.19l-0.04,0.05C65.9,72.23,65.86,72.2,65.77,72.19z"/>
						<path class="st3" d="M65.77,72.19c0.13-0.18,0.2-0.36,0.28-0.54c-0.18,0.18-0.34,0.36-0.46,0.53
							C65.65,72.17,65.72,72.18,65.77,72.19z"/>
						<path class="st3" d="M70.33,63.33c0.26,0.28-0.02,1.4-0.98,1.76c-0.36,0.84,0.99,1.29,2.1,1.15
							c-0.12-0.14-0.21-0.22,0.17-1.12c-0.33,0.16-1.73,1.25-1.48,0.44c0.66-1.04,0.73-0.69,1.27-1.02
							c-0.69,0.09,0.36-1.68-0.39-1.89l-0.42,0.99C70.5,63.57,70.59,63.16,70.33,63.33z"/>
						<path class="st3" d="M70.2,67.56l-0.23,0.32c0.35-0.28,0.68-0.41,1.32-0.65c0.3-0.62,0.28-0.81,0.21-0.93l-1.34,1.4
							L70.2,67.56z"/>
						<path class="st3" d="M68.76,69.17c-0.06-0.5,0.41-1.34-0.3-1.24c-0.76,0.83-0.31,0.8-0.68,1.4c1.28-1.32-0.23,0.53,0.93-0.19
							c-0.22,0.3-0.45,0.54-0.66,0.76c0.28-0.19,0.57-0.36,0.85-0.51c-0.02,0-0.03,0.01-0.05,0.01l-0.01,0.01l0-0.01
							c-0.1,0.02-0.14,0.01-0.05-0.03c0-0.01,0.02-0.02,0.02-0.03C68.78,69.29,68.77,69.23,68.76,69.17
							c0.46-0.3,0.14,0.02,0.05,0.17c0.01,0.02,0.01,0.04,0.03,0.06l0.01,0c0.42-0.47,0.74-1.02,1.11-1.52
							C69.65,68.13,69.36,68.52,68.76,69.17z"/>
						<path class="st3" d="M60.27,73.07c0.07,0,0.08,0.03,0.1,0.06C60.44,73.03,60.46,72.97,60.27,73.07z"/>
						<path class="st3" d="M61.03,72.92c-0.08,0.12-0.08,0.32-0.46,0.5c-0.38,0.08-0.11-0.18-0.2-0.29
							c-0.15,0.23-0.6,0.73,0.19,0.49l0.08-0.12c0.69-0.25,1.79-0.29,1.72-0.18C61.96,73.12,61.65,72.99,61.03,72.92z"/>
						<path class="st3" d="M64.93,71.15c0.37-0.34,0.69-0.75,1.01-1.14l-0.81,0.23l0.17,0.15C64.6,70.87,64.9,70.95,64.93,71.15z"/>
						<path class="st3" d="M71.85,66.23l0.21,0.45c0.05-0.35,0.04-0.75,0.06-1.12L71.85,66.23z"/>
						<polygon class="st3" points="73.03,64.58 73.3,64.88 73.43,64.3 						"/>
						<path class="st3" d="M20.95,8.05l-0.29,0.31C20.81,8.23,20.89,8.13,20.95,8.05z"/>
						<path class="st3" d="M23.54,6.68l-0.02-0.21C23.44,6.63,23.43,6.73,23.54,6.68z"/>
						<path class="st3" d="M75.04,17.77c-0.03-0.76,0.05-1.73-0.28-1.41l-0.25,0.42C74.81,17.13,74.96,17.47,75.04,17.77z"/>
						<path class="st3" d="M47.35,1.37l0.15,0.16c0.18-0.11,0.34-0.21,0.5-0.3C47.8,1.27,47.58,1.29,47.35,1.37z"/>
						<path class="st3" d="M46.58,3.06l-0.73-0.39C46,2.79,46.24,2.92,46.58,3.06z"/>
						<path class="st3" d="M9.72,19.14c0.03,0.21,0.05,0.41,0.1,0.63C10.22,19.17,9.87,19.31,9.72,19.14z"/>
						<path class="st3" d="M80.73,45.57c0.25-0.54,0.39-0.99,0.47-1.39C80.86,44.84,80.4,45.34,80.73,45.57z"/>
						<path class="st3" d="M19.71,3.42c-0.2,0.21-0.26,0.35-0.2,0.43C19.71,3.64,19.81,3.48,19.71,3.42z"/>
						<path class="st3" d="M81.32,42.52c-0.05,0.1-0.08,0.2-0.12,0.3c0.04,0.43,0.11,0.86,0.01,1.37
							C81.47,43.69,81.58,43.1,81.32,42.52z"/>
						<path class="st3" d="M19.16,70.07c0.02,0.04,0.06,0.07,0.08,0.11C19.28,70.14,19.23,70.11,19.16,70.07z"/>
						<path class="st3" d="M34.2,80.32c-0.19,0-0.49-0.05-0.77-0.08C33.56,80.29,33.79,80.32,34.2,80.32z"/>
						<path class="st3" d="M77.42,57.7C77.25,58.1,77.43,57.78,77.42,57.7L77.42,57.7z"/>
						<path class="st3" d="M74.99,58.77c0-0.1-0.03-0.19-0.11-0.25C74.96,58.6,74.99,58.68,74.99,58.77z"/>
						<path class="st3" d="M78.69,38.32c0-0.01,0-0.02,0-0.03C78.61,38.41,78.63,38.39,78.69,38.32z"/>
						<path class="st3" d="M76.96,58.19c0.12-0.12,0.24-0.27,0.36-0.44C77.24,57.82,77.13,57.95,76.96,58.19z"/>
						<path class="st3" d="M77.18,58.21c-0.08,0.13-0.14,0.23-0.2,0.32C77.02,58.61,77.08,58.59,77.18,58.21z"/>
						<path class="st3" d="M77.66,57.14c-0.1,0.23-0.22,0.42-0.34,0.61c0.06-0.06,0.1-0.09,0.1-0.06
							C77.47,57.58,77.54,57.42,77.66,57.14z"/>
						<path class="st3" d="M2.18,44.63c-0.01,0.03-0.01,0.06-0.03,0.09C2.39,45.08,2.34,44.91,2.18,44.63z"/>
						<path class="st3" d="M64.89,12.48c0.02,0.01,0.03,0.01,0.05,0.01c-0.01-0.02-0.02-0.04-0.03-0.05L64.89,12.48z"/>
						<path class="st3" d="M63.66,11.79c0.78-0.02,0.99,0.27,1.24,0.65l0.5-1.23C64.81,11.39,64.23,11.59,63.66,11.79z"/>
						<path class="st3" d="M15.38,12.27l0.96-0.35c-0.42,1.26-1.16,1.62-0.15,1.45c-0.39-0.53,0.22-1.23,0.93-1.8
							c0.71-0.57,1.42-1.14,1.08-1.74l0.67-0.14c-0.15,0.1-0.13,0.18-0.28,0.28c1.33-0.2,0.17-1.34,1.65-2.03
							c0.53-0.2,0.96-0.23,0.72,0.1l0.89-0.93c0.32-0.16,0.36,0.09,0.04,0.25c0.52-0.35,1.09-0.62,1.63-0.93l0,0.04
							c0.15-0.31,0.56-0.87,0.78-1.13c0.52-0.03-0.16,0.24,0.02,0.34c0.27-0.25,0.54-0.52,0.82-0.75c0.27,0.09,0.23,0.28,0.04,0.49
							c-0.18,0.22-0.51,0.46-0.84,0.6c0.72,0.41,0.87,0.24,1.13-0.06c0.27-0.26,0.66-0.65,1.77-0.63l-0.85,0.49
							c0.86,0.51,1.46-0.01,2.62,0.07c-0.29-0.16-2.43-0.39-1.5-1.1c0.34-0.01,0.73-0.12,1.23-0.57c0.15,0.46,0.69,0.2,1.4-0.01
							l0.12,0.63c0.72-0.37,0.58-0.68,0.97-1.07c0.88-0.16,1.16,0.27,1.45,0.66c1.41-0.11-1.12-0.63,0.52-1
							c0.61,0.03,1.11-0.05,1.63-0.21c0.52-0.16,1.06-0.44,1.77-0.64c0.86,0.18-0.12,0.4,0.2,0.56l0.71-0.55
							c0.18,0,0.13,0.16,0.11,0.24c0.62-0.23,0.02-0.64,1.01-0.87c0.13-0.35,0.65-0.15,1.29,0.11c0.63,0.28,1.36,0.55,2,0.18
							c0.29,0.2-0.17,0.38-0.09,0.64c1.71-0.44,1.46-0.34,2.93-0.82l1.12,0.6c-0.79-0.61,0.4-1,1.5-1.3
							c-0.27-0.28-0.51-0.52-0.68-0.64c0.56-0.03,1.13-0.07,1.68-0.02c0.17,0.15-0.04,0.32-0.36,0.52c0.12-0.02,0.23-0.05,0.32-0.07
							c0.51,0.38,0.13,0.66-0.34,0.91L47.5,1.52c-0.47,0.32-0.91,0.69-0.9,1.07c0.11-0.06,0.32-0.09,0.54-0.09
							c-0.12,0.09-0.2,0.17-0.17,0.24c0.04,0.08,0.23-0.06,0.51-0.14l0.19,0.79l0.14-0.26l1.85,0.94c0.4-0.08,0.79-0.19,1.2-0.29
							c0.4-0.07,0.81-0.14,1.25-0.19c0.87-0.08,1.88-0.12,3.05,0.22c-0.74,0.22-0.45,0.73-0.73,1.28c-0.33-0.86-1.79-0.37-2.85-0.91
							c0.56,0.28,0.33,0.51,0.15,0.55l2.2,0.17c-0.24,0.45,0.28,0.5,0.69,0.95c0.03-1.1,1.71,0.09,2.64,0.19
							c-0.11,0.32-0.46,0.54-1.37,0c0.69,1.19,1.93-0.43,2.61,0.77c-0.23-0.13-0.32-0.25-0.49-0.15c0.67,0.06,1.83,1.04,1.37,1.11
							l-0.22-0.13c0.35,0.25,0.81,0.54,1.3,0.83c0.48,0.31,0.97,0.67,1.46,0.96c0.97,0.58,1.9,0.95,2.26,0.73
							c-0.06,0.09-0.82,0.63-1.02,0.71c1.37-0.08,2.77-0.07,4.25-0.03c-0.71,0.35-1.15,2.29-2.48,1.64c0.22,0.36,0.54,0.74,1.3,1.19
							c-0.1-0.28,0.27-1.26,0.59-1.02c0.13,1.35,0.19,0.86,0.54,2.28c-0.16-0.41,1-0.84,1.43-0.31c-0.2,0.03-0.82,0.78-1.07,0.68
							c0.65,0.15,1.32,0.32,1.93,0.55c-0.41-0.21-0.79,0.54-0.82,1.03c0.07-0.27,0.83,1.14,1.18,1.42l-0.2-0.71
							c0.99,1.56,2.37,0.61,3.33,2.28c-0.32-0.08-1.51,0.26-1.15,1.13c0.35,0.04,1.24,0.09,2.12,0.35c0.88,0.27,1.83,0.72,2.42,1.43
							l-0.15,0.44c0.31,0.35,0.63,0.7,0.89,1.09c-0.52-0.25-1.51-0.68-2.45-1.15c-0.95-0.46-1.87-0.94-2.45-1.3
							c0.08,0.74-0.26,0.35,0.22,1.26c-0.12,0.46-0.66-0.29-0.8-0.55l0.84,2.2c0.28-0.19,0.63,0.15,0.98,0.5
							c0.31,0.36,0.59,0.75,0.84,0.6c-0.48-0.75-1.12-1.42-1.69-2.09c0.28-0.19,0.87-0.06,1.48,0.34c0.3,0.2,0.64,0.46,0.88,0.79
							c0.24,0.33,0.44,0.72,0.56,1.15c-0.1,0.51-1.23,0.11-1.43,0.23c0.29,0.12,0.97,1.37,0.87,1.57l-0.59-0.56
							c0.04,0.48,0.39,0.77,0.7,1.11c0.3,0.33,0.51,0.74,0.35,1.37c0.06,0.4-0.55,1.34-0.14,1.31c0.59-0.79,2.85-1.54,3.52-1.22
							c-0.01,0.08-0.04,0.67-0.11,1.3c-0.05,0.62-0.27,1.31-0.4,1.57c-0.49,0.77-1.56-0.74-1.98-0.08c0.18-0.01,0.46,0.31,0.56,0.45
							c-0.09,0.44-0.59-0.07-0.37,0.81c0.7,0.05,0.22,1.84,0.64,0.34c0.31,0.87,0.06,0.96,0.15,2c0.42-0.38,1.54,0.83,1.78,1.77
							c-0.18-0.05-0.39,0.17-0.49,0.27c0.01,0.47,0,0.89-0.02,1.28c-0.04,0.39-0.12,0.74-0.17,1.1c-0.12,0.7-0.24,1.39-0.28,2.26
							c-0.17,0.15-0.43,0.96-0.69,0.58c0.09,0.26,0.28,0.51,0.21,1.04c-0.74,0.94,0.09-1.18-0.73-0.49
							c0.38,0.11,0.33,1.42,0.46,2.21c0.64-0.13,0.38-1.74,0.25-2.51c0.84,0.08,1.52,1.52,1.61,3.49c-0.07,1.53-0.67,0.53-0.59,0.81
							c-0.42,1.34-0.21,2.02-0.05,2.63c0.16,0.61,0.3,1.18-0.42,2.2c-0.83,0.71-1.02-0.31-1.46-0.25c0.11-0.6,0.36-1,0.59-1.36
							c0.21-0.37,0.42-0.69,0.52-1.09l-0.5,0.91c-0.07-0.42-0.01-1.23,0.25-1.61c-0.58,0.62-1.4,4.46-2.75,6.18
							c0,0.41-0.11,1.08,0.22,0.9l0.23-0.64c0.67-0.39-0.01,1.41,0.54,0.72c-0.06,0.48-0.1,1.01-0.23,1.56
							c-0.06,0.27-0.14,0.55-0.26,0.83c-0.14,0.26-0.32,0.52-0.54,0.77l-0.66-0.1c0.17,0.07,0.76-0.55,0.78-0.95
							c-0.05,0.61-1.75,1.28-1.37,2.2l0.84-0.56c-0.24,0.94-0.24,2.36-1.16,3.18c0.82-0.09,0.11-0.25,1.19-0.54
							c-1.12,0.14,1.63-2.6,0.23-2.08c1.14-0.33,1.12-1.07,2.24-1.78c-0.19-0.06-0.52,0.19,0.01-0.68c-0.03-0.07-0.05-0.2-0.06-0.28
							c0.02-0.02,0.03-0.03,0.04-0.05l-0.05,0.04c-0.01-0.05-0.01-0.06-0.02,0.01c-0.18,0.18-0.36,0.3-0.5,0.32
							c-0.2-0.66,0.5-2.06,0.51-2.64c0.34-0.49,0.11,0.31,0.44,0.11c0.01-0.29,0.01-0.57-0.02-0.87c0.44,0.1,1.24-1.2,1,0.22
							l0.46-1.18c0.49-0.61,0.96-1.56,0.97-2.22c0.25-0.56-0.1-1.6,0.11-1l0.23-1.99L80.2,49c0.31-0.94,0.23-1.98,0.31-3.01
							c0.05-1.04,0.27-2.08,0.69-3.17c-0.08-0.67-0.18-1.35,0-2.44l0.4-0.21c-0.08-0.84,0.29-2.57-0.11-2.92
							c0.25-0.24,0.37-0.63,0.42-1.1c0.06-0.47,0.02-1.01-0.11-1.56c-0.22-1.1-0.55-2.25-0.58-3.02l-0.51,0.04
							c-0.16-1.02-0.59-1.94-1.09-3.11l-0.41,0.2c-0.56-0.96-0.54-2.74-1.17-4.36c0.2,0.05,0.31,0.48,0.32,0.8
							c0.06-0.57-0.05-1.11-0.25-1.61c-0.23-0.49-0.56-0.93-0.89-1.36c-0.68-0.86-1.29-1.69-1.46-2.66
							c-0.38-0.32-0.51-0.63-0.58-0.97c0.02,0.04,0.05,0.07,0.08,0.09c-0.02-0.04-0.06-0.1-0.09-0.17
							c-0.04-0.22-0.07-0.44-0.13-0.68c0.01,0.23,0.03,0.43,0.08,0.59c-0.19-0.3-0.53-0.74-0.9-1.13l0.28-0.46
							c-0.03-0.03-0.05-0.06-0.08-0.1c-0.13-0.55-0.41-0.23-0.57,0.21c-0.2-0.19-0.44-0.32-0.64-0.41c0.38-0.79-1.04-0.95-0.72-1.91
							c-0.27-0.02-0.73-0.51-1.22-0.95c-0.54-0.4-1.11-0.75-1.52-0.57c0.07-0.09,0.01-0.24,0.2-0.03c-0.32-0.49-0.64-0.99-1.16-1.21
							l0.27-0.61c-0.48-0.13-0.97-0.24-1.48-0.32c-0.31-0.78-0.41-1.17,0.49-0.98c-1.88-0.72-1.31-0.84-2.95-1.33l0.31-0.26
							c-0.46-0.33-1.51-0.45-1.58-0.91c-0.51-1.47-5.08-3.6-7.8-5.5c0.05,0.68-0.23,0.38-0.6,0.04c-0.38-0.31-0.85-0.7-1.07-0.3
							c-0.08-0.32-0.46-0.63,0.13-0.67c-1.67-0.31-2.24-1.35-3.6-0.87c-0.11-0.31,0.46-0.3,0.34-0.5c-0.15,0.02-0.59,0.1-0.71-0.11
							c-0.12-0.2,0.3-0.16,0.6-0.21c-1.71-0.4-2.07,0.39-2.37,1.14c-0.37-0.29-0.66-0.45-0.95-0.49c-0.29-0.01-0.58,0.09-0.93,0.3
							c-0.24-0.3-0.69-0.65,0.37-0.58c-0.57-0.12-3.54-0.95-3.66-0.28c-0.17-0.17-0.82-0.09-0.98-0.02
							c-1.32-0.11-1.43-0.17-2.73-0.17l0.36,0.12c-0.52,0.72-1.07,0.17-2.11,0.31l0.03-0.08c-1.2-0.22-1.46-0.14-1.71-0.07
							c-0.25,0.1-0.49,0.06-1.7-0.05l0.18,0.46c-0.08,1.06-2.13-0.29-3.44,0.32c0.18,0.06,0.36,0.13,0.54,0.19
							c-0.65,0.44-2.33-0.88-3.13-0.82c-0.19-0.04,0.22-0.21,0.43-0.33c-2.13-0.08-0.1,0.67-1.5,1.19c-0.36-0.24,0.09-0.94-0.9-0.69
							c-0.28-0.04-0.9,0.47-1.61,0.98c-0.71,0.53-1.55,0.95-2.29,0.99c0.38,0.11,0.75,0.22,0.21,0.7c-0.88,0.55-3.05,0.33-3.48,1.55
							c-0.15,0.01-0.23-0.03-0.26-0.08c-0.59,0.61-2.07,1.67-2.23,2.29c-0.77-0.5-1.67,0.45-2.46,1.31C14,8.29,13.39,9.18,12.9,8.6
							l-1.79,1.74l-0.06-0.16c-1.23,1.03-1.29,1.76-1.4,2.4c-0.32,0.2-0.25-0.09-0.29-0.17c-1.81,1.48-1.84,1.82-2.4,3.79
							l-0.52-0.13c-0.04,0.29-0.72,0.84-1.37,1.67c-0.34,0.41-0.71,0.88-1.03,1.38c-0.32,0.5-0.61,1.04-0.71,1.63
							c-0.04-0.05-0.1-0.13-0.09-0.33c-0.28,1.3-1.33,2.5-1.99,3.69c-0.64,1.19-1.08,2.28-0.38,2.99c-0.08,0.57-0.03,1.16-0.04,1.74
							c0.67-2.04,0.67,0.52,1.18-0.24c-0.1,0.82-1.06,1.94-0.9,0.92l0.13-0.13c-0.8-0.61-1.01,2.5-1.58,2.32
							c-0.78,4.21-1.37,8.41-1.04,12.48c0.22-0.18,0.43-0.36,0.67-0.54c0.03,0.46,0.1,0.92,0.15,1.39
							c-0.11,0.38-0.49,0.57-0.61-0.43c-0.33,0.58,0.6,1.63,0.76,1.62c0.01,1.99-0.96-0.62-0.88-0.02l0.18,0.81l0.06-0.2
							c0.42,0.6,0.65,0.62,0.94,1.78c0.05,0.77-0.34,0.48-0.29,0.78c-0.05,0.01-0.05,0.12,0.1,0.46l0.39,1.75l0.38-0.85
							c0.46,0.68,0.41,1.6,0.81,0.64c-0.32,0.71,0.19,2.28,0.73,3.78c0.62,1.46,1.41,2.78,1.41,3.19c0.21,0.2,0.4,0.41,0.57,0.63
							c0.19,0.21,0.37,0.43,0.53,0.66c0.33,0.47,0.63,0.99,0.96,1.57c-0.07-0.35,0.38-0.85,0.9,0.15c-0.66,0.18-0.55,0.73-0.21,1.35
							c0.34,0.62,0.81,1.34,0.71,2.01c0-0.53,0.53,0.11,1.04,0.67c0.52,0.56,1.11,0.98,1,0.21c0.56,0.78-0.34,0.37-0.09,1.12
							c0.49,0.34,0.92,0.76,1.34,1.23c0.2,0.24,0.41,0.48,0.62,0.73c0.22,0.24,0.45,0.48,0.67,0.73c0.92,0.98,1.8,2.13,3.04,2.88
							c0.14-0.11-0.07-0.61,0.57-0.45l0.68,1.61c0.52,0.25,0.96-0.48,1.51,0.55c-0.04-0.2-0.1-0.5,0.25-0.35
							c2.1,1.85,4.74,3.07,7.42,4c1.36,0.44,2.68,0.98,4.05,1.37c0.68,0.22,1.35,0.47,2.02,0.76c0.67,0.3,1.35,0.5,2.03,0.83
							c-0.71-0.45-0.19-0.41,0.39-0.33c-0.37-0.14,0.08-0.43,0.04-0.67c0.74,0.33,1.49,0.7,2.26,0.99c0.49-0.64,2.55,0.09,2.82-0.53
							l-0.75,0.08c1-0.7-1.27-1.73-1.04-2.67c-0.27,0.2-0.58,0.21-0.91,0.14c-0.32-0.1-0.67-0.31-1.03-0.49
							c-0.72-0.38-1.5-0.73-2.45-0.26c-0.33-0.25,0.37-0.26,0.22-0.5c-0.5,0.36-1.02,0.29-1.91-0.13l0.13-0.07
							c-1.31-0.3-2.24-0.55-3.12-1.05c-0.44-0.23-0.9-0.47-1.41-0.74c-0.51-0.27-1.08-0.53-1.71-0.94l0.01,0.53
							c-0.56-0.34-0.61-0.53-0.83-0.77c-0.98,0.33,1.61,0.82,0.68,1.25c-0.2-0.63-1.21-1.13-2.2-1.62
							c-0.97-0.52-1.84-1.16-1.81-1.76c-0.84-0.51-0.04,0.62-0.88,0.1l-0.06-0.38l-0.42,0.19c-0.53-0.38-0.55-0.93-0.43-1.13
							c0.11,0.12,0.39,0.21,0.54,0.29c-0.46-0.78-1.94-1.3-2.1-1.57l0.64,0.71c-0.57-0.35-1.18-0.73-1.73-1.19
							c-0.54-0.48-1.09-0.98-1.64-1.47c-0.28-0.24-0.56-0.49-0.83-0.73c-0.25-0.26-0.51-0.52-0.77-0.77
							c-0.52-0.49-1.05-0.95-1.61-1.33l-0.04,0.29c-0.43-0.3-0.67-0.55-0.83-0.78c-0.17-0.23-0.26-0.42-0.35-0.61
							c-0.19-0.4-0.36-0.83-1.1-1.65L8.89,61c-0.47-0.21-0.85-0.67-1.15-1.2c0.51,0.33-0.11-1.16,0.51-0.69
							c-1.49-1.62-0.88-0.7-2.3-1.58l0.18-0.47c-0.51-0.29-0.69-0.25-1.26-1.22c0.69,0.69,0.2-0.88,1.03-0.14
							c-0.07-0.6-0.24-1.07-0.45-1.46c-0.19-0.4-0.39-0.73-0.59-1.03c-0.39-0.6-0.68-1.08-0.3-1.76c-1.34-0.67,0.15,2.06-0.26,1.58
							c-0.14,0.6-1.03-0.57-1.19-1.3C2.84,51,4,50.1,3.51,48.35c0.04,0.18,0.12,0.17,0.16,0.35c0.04-0.36-0.13-0.67-0.28-1
							c-0.17-0.33-0.3-0.69-0.14-1.15c-0.68-0.36-0.13-1.09-0.93-1.1l0.44,1.66c-0.35-0.9-1.4-1.69-1.2-3.36
							c0.18,0.11,0.46,0.56,0.63,0.87c0.17-0.49-0.32-0.87-0.1-1.38c0.75,0.06,0.47,2.03,1.21,2.95c0.26-0.53-0.86-1.82,0.07-1.44
							c-0.6-0.29-0.63-0.74-0.64-1.26c0.03-0.52,0.11-1.1-0.34-1.7l0.48,0.05c-0.08-0.19-0.33-0.59-0.34-0.95l0.65,0.62
							c-0.57-0.98,0.32-1.92,0.13-2.85c-0.05,0.99-0.19,1.1-0.37,1.07c-0.19-0.03-0.43-0.21-0.58,0.22
							c-0.56-2.52,1.29-1.41,1.21-4.13c0.02,0.37-0.36,1.37-0.56,0.77c0.1-0.52,0.39-1.19,0.69-1.47c0.18-1.8-0.53,0.21-0.7-0.59
							c0.67-0.54-0.1-0.92-0.15-1.77l0.48,0.08c0.14-0.51,0.18-0.8,0.17-0.99c-0.03-0.19-0.13-0.28-0.24-0.36
							c-0.21-0.16-0.42-0.3,0.01-1.19l0.45,0.94l0.08-1l0.48,0.33c-0.06-0.56-0.05-0.93,0.03-1.26c0.08-0.34,0.22-0.66,0.49-1.12
							c-0.41,0.12-0.78-0.4-0.47-1.3c0.49-0.5,0.31,0.49,0.7-0.78c0.18,0.39,0.42,0.82-0.19,1.21c0.13,0.11,0.18,0.37,0.31,0.48
							c0.54-0.52,0.65-1.56,0.81-2.01c-0.08,0.16-0.18,0.36-0.28,0.44c0.01-0.34,0-0.68,0.02-1.02l0.11-1
							c0.3-0.2,0.32,0.08,0.35,0.35c0.12-0.37,0.04-0.7,0.25-1.23c0.29,0.3,0.67,0.45,0.49,1.24l0.39-1.8
							c0.2-0.04,0.82-0.6,0.84-0.32c0.72-0.7,0.58-2.47,1.58-3.41c-0.02-0.1,0-0.25,0.12-0.51c0.41-0.47,0.88-0.86,1.29-1.31
							c0.21-0.22,0.4-0.47,0.58-0.74c0.2-0.26,0.38-0.56,0.52-0.92l1.08-0.14c0.65-0.96-1.42,0.24-0.31-1.37
							c0.77-1.17,0.77,0.04,1.24-0.16c0.24-0.69,0.65-2.04,1.95-2.45C15.94,11.83,15.63,11.97,15.38,12.27z M27.48,4.8
							c-0.23,0.19-0.64,0.67-0.93,0.48C26.65,4.65,26.98,4.81,27.48,4.8z M49.28,2.8c-0.25,0.1-0.54-0.06-0.86-0.33
							C48.69,2.51,48.98,2.6,49.28,2.8z M78.85,53.19c0-0.02-0.01-0.03-0.01-0.04C79.26,52.56,79.1,52.77,78.85,53.19z M78.16,54.48
							c0.01,0.16,0.08,0.18,0.16,0.14c-0.08-0.14,0.03-0.45,0.18-0.78C78.35,53.89,78.2,54.03,78.16,54.48z M-0.2,49.5l0.05-0.3
							C0.15,49.77-0.02,49.63-0.2,49.5z"/>
						<path class="st3" d="M46.67,2.87c-0.06-0.09-0.07-0.18-0.07-0.28C46.47,2.66,46.46,2.75,46.67,2.87z"/>
						<path class="st3" d="M9.7,19.03l-0.03,0.03c0.01,0.04,0.03,0.06,0.05,0.08L9.7,19.03z"/>
						<path class="st3" d="M76.26,33.24c0.03-0.28,0.09-0.44,0.17-0.56C76.31,32.69,76.23,32.83,76.26,33.24z"/>
						<path class="st3" d="M75.46,61.73l0.38-0.87c-0.22,0.4-0.39,0.48-0.57,0.64C75.37,61.54,75.6,61.48,75.46,61.73z"/>
						<path class="st3" d="M68.33,66.19c-0.04,0.13-0.18,0.2-0.22,0.34l0.19,0.13C68.66,66.24,68.78,65.84,68.33,66.19z"/>
						<path class="st3" d="M73.66,61.6c-0.39-0.17-0.52,0.42-0.86,0.95c0.02-0.03,0.04-0.06,0.07-0.09
							C73.23,62.95,73.48,62.29,73.66,61.6z"/>
						<path class="st3" d="M72.72,62.68c-0.1,0.17-0.21,0.33-0.34,0.47C72.52,63.35,72.56,62.99,72.72,62.68z"/>
						<path class="st3" d="M77.73,56.28c-0.23,0.24,0.39,0.39,0.16,0.48C78.23,57.28,78.19,54.64,77.73,56.28z"/>
						<polygon class="st3" points="72.28,61.3 72.81,61.39 72.65,60.87 						"/>
						<path class="st3" d="M75.01,57.27l-0.55,0.83c0.08,0.03,0.07,0.16,0.04,0.32C74.77,57.87,75.15,57.31,75.01,57.27z"/>
						<path class="st3" d="M74.49,58.41c-0.16,0.28-0.32,0.53-0.33,0.73C74.24,58.99,74.43,58.67,74.49,58.41z"/>
						<polygon class="st3" points="72.85,60.08 73.09,59.89 73.48,59.31 						"/>
						<path class="st3" d="M78.55,47.26l0.02-1.09c-0.15-0.14-0.3,0.14-0.29,0.54C78.35,46.98,78.36,47.39,78.55,47.26z"/>
						<path class="st3" d="M76.45,50.06c0.17-0.25,0.28-0.23,0.48-0.35l-0.59-0.19L76.45,50.06z"/>
						<path class="st3" d="M77.04,47.08c-0.15-0.14-0.26-1.57-0.42-0.28C76.79,46.94,76.73,47.99,77.04,47.08z"/>
						<polygon class="st3" points="77.64,31.33 77.72,31.59 78.7,31.34 						"/>
						<path class="st3" d="M70.16,19.74c0.41,1.14,0.68-0.1,0.98,0.98c0.35,0.12-0.25-0.88,0.08-0.75
							C70.62,19.49,70.55,19.09,70.16,19.74z"/>
						<path class="st3" d="M71.21,19.97c0.09,0.08,0.2,0.16,0.32,0.24C71.37,20.06,71.28,20,71.21,19.97z"/>
						<polygon class="st3" points="37.28,81.16 38.14,81.41 37.59,81.04 						"/>
						<path class="st3" d="M38.95,80.49l0.19,0.66l0.52-0.56C39.47,80.6,39.1,80.64,38.95,80.49z"/>
						<path class="st3" d="M29.87,5.4l0.01-0.16c-0.16-0.13-0.33-0.1-0.68-0.04L29.87,5.4z"/>
						<polygon class="st3" points="20.47,9.09 20.62,9.01 20.03,8.68 						"/>
						<path class="st3" d="M14.34,14.97c0.24-0.25,0.44-0.61,0.72-0.82C14.57,14.71,13.77,14.54,14.34,14.97z"/>
					</g>
				</g>
			</g>
		</g>
	</g>
</g>
</svg>
