<?xml version="1.0" encoding="utf-8"?>
<!-- Generator: Adobe Illustrator 27.4.0, SVG Export Plug-In . SVG Version: 6.00 Build 0)  -->
<svg version="1.1" id="Layer_1" xmlns="http://www.w3.org/2000/svg" xmlns:xlink="http://www.w3.org/1999/xlink" x="0px" y="0px"
	 viewBox="0 0 79.33 79.33" style="enable-background:new 0 0 79.33 79.33;" xml:space="preserve">
<style type="text/css">
	.st0{fill:#FFFFFF;stroke:#D1D3D4;stroke-width:2;stroke-miterlimit:10;}
	.st1{fill:#C6C6C5;}
	.st2{fill:none;}
</style>
<g>
	<circle class="st0" cx="39.66" cy="39.66" r="37.99"/>
	<g>
		<path class="st1" d="M0.5,39.66C0.5,18.07,18.07,0.5,39.66,0.5s39.16,17.57,39.16,39.16S61.26,78.83,39.66,78.83
			S0.5,61.26,0.5,39.66z M2.84,39.66c0,20.31,16.52,36.83,36.83,36.83s36.83-16.52,36.83-36.83S59.97,2.84,39.66,2.84
			S2.84,19.36,2.84,39.66z"/>
		<g>
			<path class="st2" d="M0.5,39.66C0.5,18.07,18.07,0.5,39.66,0.5s39.16,17.57,39.16,39.16S61.26,78.83,39.66,78.83
				S0.5,61.26,0.5,39.66z M2.84,39.66c0,20.31,16.52,36.83,36.83,36.83s36.83-16.52,36.83-36.83S59.97,2.84,39.66,2.84
				S2.84,19.36,2.84,39.66z"/>
			<g>
				<g>
					<g>
						<path class="st1" d="M5.29,39.41c-0.05,0.32,0.37,0.2,0.44,0.25C5.67,39.14,5.18,39.42,5.29,39.41z"/>
						<polygon class="st1" points="4.82,34.02 4.97,34.14 4.68,33.28 						"/>
						<path class="st1" d="M5.95,29.1c-0.82,0.26-0.35,1.81-0.82,2.61l-0.2,0.11l0.46,0.52C5.57,31.28,5.55,29.79,5.95,29.1z"/>
						<path class="st1" d="M8.31,27.14c-0.31,0.05-0.03-0.61-0.29,0.53c0.05-0.04,0.07-0.05,0.1-0.08
							C8.15,27.5,8.21,27.37,8.31,27.14z"/>
						<path class="st1" d="M8.12,27.6C7.97,28.09,8.46,27.37,8.12,27.6L8.12,27.6z"/>
						<path class="st1" d="M8.9,25.37l-0.07,0.71c0.21-0.06,0.5-0.58,0.52-0.33C9.52,25.08,9.31,25.13,8.9,25.37z"/>
						<path class="st1" d="M8.71,24.57l-0.06,0.36C8.74,24.9,8.8,24.83,8.71,24.57z"/>
						<path class="st1" d="M8.52,25.7l0.12-0.77c-0.15,0.04-0.36-0.05-0.08,0.34C8.41,25.13,8.52,25.35,8.52,25.7z"/>
						<path class="st1" d="M8.24,26.03c-0.32,0.28-0.57,0.71-0.54-0.02C7.32,27.28,7.83,27.27,8.24,26.03z"/>
						<path class="st1" d="M5.33,28.63c-0.13,0.15-0.26,0.29-0.37,0.45l0.11,0.52C5.01,29.34,5.54,28.66,5.33,28.63z"/>
						<path class="st1" d="M11.22,21.88c-0.11-0.12-0.46-0.02-0.65-0.08l-0.11,0.52C10.68,22.15,11.01,21.79,11.22,21.88z"/>
						<path class="st1" d="M10.56,21.8l0.17-0.78C10.36,21.58,10.4,21.75,10.56,21.8z"/>
						<polygon class="st1" points="8.05,24.11 8,25.48 8.15,23.88 						"/>
						<polygon class="st1" points="12.83,19.58 12.86,20.12 12.88,19.21 						"/>
						<path class="st1" d="M13.92,18.06c0.02,0.41,0.66,0.01,0.58,0.36c0.3-0.4,0.4-0.88,0.49-1.32
							C14.8,17.49,14.49,17.79,13.92,18.06z"/>
						<path class="st1" d="M15.19,16.39c-0.09,0.2-0.14,0.45-0.2,0.71C15.09,16.89,15.16,16.67,15.19,16.39z"/>
						<path class="st1" d="M11.51,19.99c0.11,0.01,0.37,0.05,0.71-0.22l-0.52-0.01C11.64,19.83,11.57,19.91,11.51,19.99z"/>
						<path class="st1" d="M11.68,19.76l0.02,0c0.2-0.25,0.34-0.42,0.4-0.5C12.04,19.32,11.92,19.47,11.68,19.76z"/>
						<path class="st1" d="M11.46,20.05c0.02-0.02,0.03-0.04,0.05-0.06C11.46,19.99,11.44,20,11.46,20.05z"/>
						<path class="st1" d="M9.32,22.5c0.02-0.5,0.3-1.45-0.49-0.84C8.91,22.08,9.36,21.74,9.32,22.5z"/>
						<path class="st1" d="M10.8,20.05c-0.19,0.2-0.34,0.42-0.52,0.64c0.1,0.05,0.32,0.01,0.3,0.27
							C10.66,20.65,10.71,20.33,10.8,20.05z"/>
						<polygon class="st1" points="10.93,19.65 10.8,20.05 11.01,19.82 						"/>
						<path class="st1" d="M13.98,17.13c0.09-0.38,0.34-0.67,0.6-1.01c-0.37,0.28-0.73,0.61-1.03,0.94
							C13.61,17.2,13.66,17.5,13.98,17.13z"/>
						<path class="st1" d="M12.79,18.35c0.01-0.02,0.02-0.05,0.03-0.08C12.76,18.28,12.73,18.31,12.79,18.35z"/>
						<polygon class="st1" points="17.64,13.21 17.54,13.19 17.57,13.26 						"/>
						<path class="st1" d="M13.44,17.06c-0.3,0.2-0.36,0.42-0.39,0.65c0.14-0.22,0.31-0.44,0.5-0.66
							C13.53,17,13.5,16.97,13.44,17.06z"/>
						<path class="st1" d="M15.85,15.41c-0.2,0.05-0.4,0.14-0.59,0.25C15.47,15.62,15.88,15.53,15.85,15.41z"/>
						<path class="st1" d="M12.98,18.25c-0.01,0.02-0.01,0.04-0.02,0.05C13.1,18.27,13.06,18.25,12.98,18.25z"/>
						<path class="st1" d="M12.98,18.25c0.06-0.18,0.06-0.36,0.07-0.53c-0.1,0.19-0.18,0.38-0.23,0.55
							C12.87,18.25,12.93,18.25,12.98,18.25z"/>
						<path class="st1" d="M16.97,10.26c0.2,0.37-0.39,1.17-1.25,1.44c-0.42,0.78,0.86,1.38,1.82,1.49
							c-0.09-0.14-0.22-0.29,0.29-0.95c-0.39-0.04-1.7,0.78-1.42,0.05c0.68-0.89,0.79-0.45,1.33-0.62
							c-0.67-0.11,0.68-1.41,0.06-1.85l-0.64,0.8C17.08,10.53,17.26,10.18,16.97,10.26z"/>
						<path class="st1" d="M16.39,14.18l-0.21,0.26c0.32-0.2,0.63-0.26,1.19-0.36c0.27-0.51,0.26-0.7,0.2-0.82l-1.23,1.04
							L16.39,14.18z"/>
						<path class="st1" d="M15.11,15.44c-0.15-0.51,0.34-1.15-0.36-1.16c-0.69,0.71-0.22,0.75-0.49,1.31
							c0.98-1.24-0.13,0.5,0.81-0.17c-0.15,0.28-0.32,0.5-0.48,0.7c0.23-0.17,0.45-0.32,0.68-0.46c-0.02,0-0.03,0-0.04,0.01l0,0.01
							l0-0.01c-0.08,0.01-0.12,0.01-0.05-0.03c0-0.01,0.01-0.02,0.02-0.03C15.14,15.56,15.12,15.5,15.11,15.44
							c0.37-0.27,0.13,0.03,0.07,0.17c0.01,0.02,0.02,0.04,0.03,0.06l0.01,0c0.28-0.45,0.64-0.81,0.96-1.23
							C15.9,14.63,15.58,14.89,15.11,15.44z"/>
						<path class="st1" d="M8.49,20.43c0.06-0.02,0.08-0.01,0.11,0.01C8.61,20.32,8.6,20.27,8.49,20.43z"/>
						<path class="st1" d="M9.06,20c-0.01,0.13,0.08,0.31-0.15,0.62c-0.28,0.22-0.17-0.11-0.3-0.17C8.58,20.7,8.44,21.3,9,20.79
							l0.01-0.13c0.47-0.48,1.34-0.89,1.33-0.76C9.92,19.84,9.61,19.83,9.06,20z"/>
						<path class="st1" d="M11.94,17.42c0.2-0.41,0.46-0.77,0.7-1.15l-0.75,0.27l0.2,0.12C11.53,17.18,11.87,17.24,11.94,17.42z"/>
						<path class="st1" d="M17.88,13.27l0.17,0.46c0.03-0.34,0.11-0.63,0.17-0.95L17.88,13.27z"/>
						<polygon class="st1" points="19.18,12.23 19.37,12.58 19.58,12.13 						"/>
						<path class="st1" d="M73.35,59.61l-0.13,0.43C73.3,59.85,73.34,59.72,73.35,59.61z"/>
						<path class="st1" d="M74.86,56.88l-0.14-0.15C74.75,56.9,74.8,56.99,74.86,56.88z"/>
						<path class="st1" d="M57.7,10.51c0.28,0.6,0.47,1.39,0.66,0.98l0.1-0.45C58.09,10.91,57.86,10.71,57.7,10.51z"/>
						<path class="st1" d="M75.86,32.4c0.03-0.06,0.07-0.13,0.1-0.2c-0.18-0.11-0.35-0.21-0.51-0.3
							C75.58,32.05,75.74,32.22,75.86,32.4z"/>
						<path class="st1" d="M77.69,32.48l-0.15,0.85C77.61,33.14,77.66,32.86,77.69,32.48z"/>
						<path class="st1" d="M62.08,72.35c-0.05,0.22-0.1,0.45-0.17,0.66C62.57,72.56,62.14,72.56,62.08,72.35z"/>
						<path class="st1" d="M34.76,5.61c0.49,0.1,0.87,0.11,1.2,0.08C35.38,5.52,34.86,5.23,34.76,5.61z"/>
						<path class="st1" d="M69.96,56.34c-0.05,0.24-0.03,0.37,0.06,0.41C70.08,56.5,70.08,56.34,69.96,56.34z"/>
						<path class="st1" d="M37.33,5.59c-0.09-0.04-0.17-0.06-0.26-0.09c-0.34,0.1-0.68,0.14-1.1,0.18
							C36.4,5.8,36.89,5.93,37.33,5.59z"/>
						<path class="st1" d="M7.09,61.64c-0.01-0.05-0.03-0.1-0.03-0.15C7.01,61.51,7.04,61.57,7.09,61.64z"/>
						<path class="st1" d="M5.09,44.31c0.05,0.15,0.09,0.41,0.13,0.65C5.23,44.84,5.2,44.64,5.09,44.31z"/>
						<path class="st1" d="M24.99,8.93C24.69,9.11,24.96,9,24.99,8.93L24.99,8.93z"/>
						<path class="st1" d="M22.63,8.16c0.05-0.08,0.07-0.16,0.03-0.25C22.69,8.02,22.67,8.1,22.63,8.16z"/>
						<path class="st1" d="M40.93,2.84c0.01,0,0.02,0,0.03,0C40.85,2.75,40.87,2.77,40.93,2.84z"/>
						<path class="st1" d="M24.43,8.98c0.14-0.01,0.3-0.04,0.46-0.08C24.81,8.9,24.67,8.93,24.43,8.98z"/>
						<path class="st1" d="M24.58,9.14c-0.12,0.04-0.21,0.07-0.3,0.1C24.28,9.32,24.34,9.34,24.58,9.14z"/>
						<path class="st1" d="M25.42,8.7c-0.18,0.09-0.36,0.16-0.53,0.21c0.08,0,0.11,0.01,0.1,0.03C25.08,8.88,25.21,8.81,25.42,8.7z"
							/>
						<path class="st1" d="M34.66,77.44c-0.02-0.02-0.05-0.03-0.08-0.05C34.17,77.5,34.34,77.5,34.66,77.44z"/>
						<path class="st1" d="M68.09,13.28c-0.02-0.01-0.03-0.01-0.05-0.02c0.01,0.02,0.02,0.04,0.03,0.05L68.09,13.28z"/>
						<path class="st1" d="M69.3,14.14c-0.82-0.1-1-0.4-1.23-0.82l-0.61,1.19C68.07,14.37,68.68,14.25,69.3,14.14z"/>
						<path class="st1" d="M69.05,65.72l0.98-0.51c-0.35,1.34-1.14,1.89-0.07,1.52c-0.47-0.52,0.23-1.25,0.81-2.08
							c0.58-0.83,1.16-1.66,0.65-2.11l0.64-0.38c-0.13,0.15-0.08,0.22-0.21,0.37c1.33-0.69-0.23-1.35,0.8-2.65
							c0.39-0.44,0.77-0.69,0.7-0.27l0.38-1.28c0.21-0.31,0.38-0.12,0.16,0.19c0.3-0.59,0.53-1.22,0.79-1.83l0.03,0.03
							c-0.07-0.35-0.09-1.06-0.08-1.4c0.39-0.37,0.02,0.28,0.23,0.24c0.05-0.37,0.12-0.74,0.16-1.11c0.24-0.14,0.36,0.03,0.38,0.33
							c0,0.29-0.12,0.69-0.3,1.03c0.84-0.18,0.87-0.43,0.88-0.84c-0.01-0.42-0.04-0.99,0.72-1.9l-0.2,1.05
							c0.95-0.36,0.98-1.24,1.85-2.24c-0.34,0.22-1.97,1.87-1.87,0.62c0.21-0.28,0.42-0.69,0.36-1.38c0.46,0.14,0.51-0.51,0.68-1.29
							l0.6,0.22c0.04-0.89-0.29-0.9-0.45-1.45c0.3-0.9,0.84-1,1.27-1.14c0.34-1.51-0.94,0.9-0.78-0.92c0.22-0.6,0.3-1.14,0.3-1.72
							c0-0.58-0.04-1.19-0.22-1.95c0.27-0.86,0.38,0.18,0.58-0.12l-0.47-0.82c0.02-0.19,0.18-0.12,0.25-0.08
							c-0.16-0.67-0.64-0.09-0.76-1.11c-0.36-0.15-0.04-0.65,0.19-1.3c0.21-0.65,0.41-1.44-0.02-2.05c0.17-0.32,0.4,0.13,0.64,0.02
							c-0.61-1.72-0.43-1.49-1.35-2.8l0.23-1.26c-0.34,0.96-1.07-0.09-1.68-0.93c-0.18,0.35-0.34,0.64-0.41,0.82
							c-0.18-0.48-0.37-0.95-0.62-1.4c0.06-0.2,0.31-0.1,0.63,0.08c-0.08-0.09-0.15-0.17-0.22-0.24c0.1-0.58,0.52-0.39,0.97-0.08
							c-0.08,0.21-0.16,0.42-0.25,0.62c0.44,0.3,0.92,0.58,1.27,0.43c-0.09-0.09-0.18-0.27-0.25-0.48c0.12,0.08,0.22,0.13,0.28,0.07
							c0.05-0.07-0.09-0.21-0.32-0.42l0.61-0.5l-0.3-0.02l-0.09-2.15c-0.27-0.32-0.55-0.61-0.84-0.91
							c-0.32-0.28-0.65-0.57-0.97-0.88c-0.66-0.61-1.23-1.34-1.82-2.32c0.73,0.3,0.84-0.22,1.42-0.44c-0.35,0.84,0.9,1.61,1.21,2.82
							c-0.16-0.62,0.17-0.59,0.33-0.47l-1.32-1.86c0.49-0.15,0.2-0.59,0.12-1.19c-0.73,0.79-1.32-1.2-1.97-1.85
							c0.27-0.21,0.67-0.17,1.07,0.85c0.13-1.43-1.68-0.87-1.74-2.15c0.14,0.22,0.17,0.37,0.38,0.37c-0.58-0.38-1.15-1.78-0.72-1.63
							l0.14,0.22c-0.2-0.39-0.48-0.88-0.79-1.37c-0.33-0.49-0.75-0.96-1.14-1.39c-0.79-0.85-1.54-1.48-1.96-1.29
							c0.07-0.09,0.94-0.49,1.14-0.5c-1.42-0.2-2.84-0.3-4.18-0.37c0.71-0.3,1.25-2.3,2.53-1.5c-0.22-0.37-0.45-0.89-1.29-1.31
							c0.15,0.27-0.23,1.23-0.55,1.02c-0.21-1.3-0.23-0.8-0.75-2.2c0.21,0.41-0.91,0.93-1.37,0.47c0.19-0.06,0.7-0.9,0.96-0.82
							c-0.66-0.1-1.32-0.19-2-0.21c0.46,0.09,0.66-0.7,0.55-1.18c0.01,0.28-1.17-0.9-1.6-1.08l0.42,0.64
							c-1.43-1.31-2.43,0.23-3.93-0.78c0.3-0.09,1.22-0.93,0.46-1.56C58.61,6.4,57.87,6.71,57,7.04c-0.88,0.33-1.83,0.6-2.62,0.47
							l-0.13-0.43c-0.41-0.06-0.81-0.13-1.23-0.13c0.52-0.3,1.41-0.58,2.4-0.84c0.98-0.25,2.06-0.44,2.78-0.47
							c-0.52-0.56,0.01-0.43-0.98-0.88C57,4.3,57.96,4.59,58.26,4.71l-2.22-1.3c-0.09,0.33-0.6,0.27-1.1,0.21
							c-0.51-0.04-1.02-0.07-1.08,0.21c0.95,0.06,1.84,0.29,2.78,0.47c-0.1,0.33-0.66,0.58-1.37,0.66c-0.7,0.05-1.59,0.02-2.38-0.33
							c-0.32-0.4,0.73-1.01,0.79-1.22c-0.3,0.13-1.73-0.16-1.83-0.37l0.83-0.08c-0.43-0.29-0.88-0.22-1.33-0.2
							c-0.46,0.03-0.93,0.06-1.42-0.41c-0.38-0.14-0.98-1.15-1.14-0.78c0.48,0.92-0.02,3.24-0.55,3.7c-0.06-0.04-0.49-0.35-0.96-0.7
							c-0.47-0.38-1-0.67-1.19-0.91c-0.54-0.69,1.22-1.26,0.77-1.85c-0.06,0.18-0.46,0.34-0.63,0.39c-0.39-0.22,0.27-0.53-0.66-0.59
							c-0.26,0.65-1.85-0.34-0.52,0.5c-0.91,0.08-0.92-0.33-1.98-0.36c0.29,0.46-1.06,1.45-1.91,1.6c0.06-0.17-0.13-0.41-0.22-0.51
							c-0.45-0.04-0.84-0.09-1.21-0.15c-0.37-0.03-0.71-0.05-1.05-0.08C38,2.56,37.34,2.52,36.5,2.56c-0.17-0.16-1-0.3-0.69-0.62
							c-0.23,0.15-0.43,0.42-0.94,0.51c-1.08-0.43,1.15-0.27,0.3-0.85C35.14,2,33.88,2.34,33.18,2.7c0.33,0.57,1.7-0.14,2.42-0.5
							c0.08,0.84-1.07,1.91-2.64,2.55c-1.27,0.45-0.68-0.41-0.88-0.26c-1.25,0.25-1.68,0.74-2.06,1.16
							c-0.38,0.42-0.71,0.74-1.76,0.83c-0.95-0.22-0.39-1-0.69-1.3c0.49-0.29,0.92-0.36,1.32-0.38c0.4,0.01,0.76,0.05,1.12-0.05
							l-0.97-0.01c0.29-0.26,0.98-0.58,1.42-0.53c-0.84-0.35-4.22,1.13-6.21,1.62c-0.25,0.32-0.72,0.75-0.37,0.82l0.54-0.34
							c0.7,0.15-0.8,1.05-0.01,0.89c-0.31,0.32-0.61,0.68-0.98,1c-0.18,0.16-0.39,0.31-0.61,0.43C22.62,8.78,22.38,8.9,22.1,9
							l-0.49-0.42c0.11,0.14,0.83-0.08,1.02-0.41c-0.27,0.48-1.95,0.22-1.99,1.18l0.91-0.06c-0.54,0.71-1.07,1.7-1.94,2.18
							c0.71,0.23,0.15-0.2,1.11-0.03c-1.01-0.42,2.18-1.27,0.85-1.55c1.05,0.35,1.23-0.4,2.41-0.19c-0.12-0.17-0.48-0.2,0.31-0.47
							c0.01-0.07,0.05-0.17,0.08-0.24c0.03,0,0.03-0.01,0.06-0.01l-0.05,0c0.02-0.04,0.02-0.05-0.02,0
							c-0.22,0.01-0.41-0.02-0.52-0.09c0.16-0.59,1.38-1.17,1.7-1.59c0.49-0.13-0.1,0.3,0.24,0.38c0.15-0.21,0.31-0.42,0.48-0.6
							c0.24,0.39,1.52,0.24,0.52,0.88l0.98-0.34c0.66,0.03,1.47-0.18,1.9-0.51c0.5-0.03,1.06-0.78,0.74-0.34l1.51-0.68l0.04,0.11
							c0.78-0.23,1.58-0.46,2.42-0.7c0.84-0.21,1.74-0.4,2.69,0c0.53-0.14,1.09-0.31,2.01-0.23l0.18,0.38
							c0.7-0.18,2.06,0.48,2.37,0.07c0.17,0.27,0.46,0.43,0.82,0.52c0.36,0.08,0.78,0.11,1.22,0.17c0.88,0.09,1.84,0.07,2.42,0.25
							l0.14-0.49c0.82,0.18,1.62,0.28,2.69,0.33l0.06-0.45C50,5.88,51.14,7.09,52.5,7.53c-0.16,0.13-0.48-0.04-0.69-0.23
							c0.31,0.38,0.69,0.61,1.11,0.75c0.41,0.17,0.84,0.28,1.29,0.37c0.88,0.2,1.82,0.31,2.31,1.05c0.41,0.06,0.63,0.26,0.8,0.5
							c-0.03-0.02-0.06-0.03-0.09-0.03c0.03,0.03,0.08,0.06,0.13,0.09c0.11,0.16,0.21,0.32,0.34,0.48
							c-0.08-0.18-0.17-0.33-0.26-0.44c0.26,0.15,0.68,0.34,1.12,0.47l-0.1,0.5c0.03,0.01,0.06,0.03,0.1,0.04
							c0.27,0.37,0.43-0.01,0.43-0.43c0.24,0.04,0.45,0.1,0.65,0.1c-0.16,0.85,1.11,0.5,1,1.46c0.24-0.07,0.74,0.21,1.27,0.44
							c0.5,0.27,1.03,0.51,1.4,0.27c-0.06,0.09,0,0.22-0.18,0.06c0.31,0.42,0.62,0.83,1.13,0.96l-0.26,0.59
							c0.47,0.04,0.93,0.11,1.37,0.2c0.19,0.77,0.21,1.11-0.57,0.95c1.6,0.7,1.08,0.76,2.54,1.33l-0.35,0.2
							c0.3,0.38,1.2,0.69,1.12,1.13c0.14,1.25,3,4.59,3.46,7.47c0.41-0.48,0.45-0.14,0.46,0.3c-0.01,0.45-0.03,0.97,0.41,0.86
							c-0.2,0.25-0.21,0.67-0.59,0.34c0.72,1.24,0.36,2.09,1.29,2.83c-0.23,0.23-0.46-0.18-0.58,0c0.08,0.09,0.34,0.37,0.22,0.55
							c-0.12,0.18-0.27-0.14-0.44-0.32c0.39,1.35,1.26,1.3,2.06,1.22c-0.09,0.41-0.1,0.69,0,0.93c0.07,0.24,0.24,0.44,0.54,0.66
							c-0.22,0.31-0.42,0.78-0.65-0.11c0.03,0.52,0.11,3.13,0.72,3.12c-0.15,0.18-0.01,0.72,0.07,0.85c0.02,1.16-0.03,1.26,0.09,2.4
							l0.09-0.32c0.82,0.44,0.17,0.95,0.22,1.88l-0.08-0.03c-0.33,1.04-0.28,1.27-0.23,1.5c0.02,0.22,0.14,0.47-0.36,1.45l0.49-0.06
							c0.99,0.33-0.88,1.76-0.68,3c0.12-0.12,0.22-0.25,0.34-0.38c0.25,0.75-1.81,1.49-2.07,2.06c-0.12,0.11-0.08-0.25-0.1-0.45
							c-1,1.45,0.55,0.37,0.38,1.63c-0.39,0.12-0.73-0.53-1.04,0.25c-0.2,0.15-0.15,0.8-0.18,1.54c-0.05,0.73-0.09,1.58-0.67,1.96
							c0.35-0.12,0.7-0.25,0.62,0.36c-0.34,0.87-1.91,1.77-1.6,2.86c-0.12,0.06-0.2,0.07-0.26,0.04c-0.17,0.69-0.86,2.1-0.71,2.71
							c-0.86-0.18-1.35,0.76-1.77,1.7c-0.4,0.96-0.86,1.79-1.44,1.28l-1.37,1.63l-0.07-0.15c-1,0.91-1.15,1.44-1.25,2.06
							c-0.31,0.14-0.23-0.13-0.26-0.2c-1.66,1.14-1.81,1.2-2.7,2.85l-0.43-0.3c-0.1,0.26-0.78,0.55-1.65,0.86
							c-0.87,0.31-1.81,0.84-2.56,1.5c-0.01-0.06-0.02-0.16,0.09-0.29c-0.86,0.71-2.17,1.04-3.28,1.26
							c-1.13,0.21-2.01,0.49-2.11,1.49c-0.4,0.33-0.84,0.55-1.28,0.83c1.89-0.34-0.06,0.82,0.79,0.91c-0.73,0.3-2.06-0.03-1.18-0.35
							L49,74.58c0.08-1-2.38,0.29-2.47-0.39c-3.65,0.76-7.3,0.29-10.67-0.05c0.1,0.26,0.21,0.53,0.32,0.78
							c-0.4-0.05-0.8-0.14-1.2-0.21c-0.29-0.22-0.34-0.63,0.5-0.47c-0.39-0.48-1.46,0.13-1.52,0.28c-1.61-0.55,0.79-0.74,0.28-0.84
							l-0.69-0.05l0.14,0.11c-0.6,0.19-0.73,0.57-1.73,0.26c-0.6-0.31-0.22-0.52-0.46-0.61c0.01-0.05-0.06-0.1-0.37-0.12l-1.44-0.43
							l0.42,0.7c-0.74,0.12-1.38-0.4-0.89,0.42c-0.36-0.63-1.65-1.23-2.94-1.69c-1.26-0.54-2.47-1.09-2.69-1.35
							c-0.26-0.01-0.51-0.04-0.76-0.1c-0.23-0.07-0.46-0.17-0.68-0.28c-0.45-0.22-0.89-0.51-1.38-0.83c0.18,0.25,0,0.9-0.84,0.3
							c0.53-0.48,0.19-0.8-0.24-1.25c-0.43-0.44-1-0.94-1.03-1.56c0.09,0.47-0.49,0.08-1.07-0.26c-0.57-0.34-1.06-0.7-0.94,0.04
							c-0.55-0.65,0.29-0.42,0.03-1.08c-1.85-0.92-2.91-3.23-4.49-5.02c-0.16,0.08-0.13,0.57-0.65,0.31l-0.06-1.55
							c-0.34-0.34-1.14,0.25-1.08-0.85c-0.06,0.19-0.15,0.47-0.36,0.22c-0.93-2.26-2.23-4.31-3.19-6.59
							c-0.45-1.14-0.95-2.28-1.12-3.52c-0.11-0.61-0.19-1.22-0.23-1.83c-0.05-0.61,0.06-1.25,0.15-1.87
							c-0.24,0.7-0.34,0.28-0.42-0.22c-0.03,0.33-0.43,0.06-0.66,0.16c0.12-0.71,0.21-1.41,0.37-2.1c-0.68-0.31-0.15-2.17-0.8-2.36
							l0.15,0.65c-0.79-0.86-1.59,1.32-2.56,1.28c0.22,0.24,0.27,0.54,0.23,0.88c-0.02,0.33-0.1,0.71-0.18,1.11
							c-0.15,0.79-0.24,1.7,0.49,2.44c-0.13,0.41-0.35-0.26-0.54-0.02c0.45,0.36,0.69,0.84,0.74,1.83l-0.13-0.08
							c0.41,1.31,0.51,2.3,0.79,3.29c0.12,0.51,0.23,1.02,0.37,1.6c0.14,0.58,0.27,1.24,0.58,1.96l0.33-0.4
							c0.23,0.62,0.16,0.81,0.19,1.15c0.98,0.38-0.78-1.71,0.25-1.4c-0.25,0.59,0.25,1.65,0.73,2.68c0.5,1.02,1.09,1.95,0.76,2.5
							c0.53,0.89,0.31-0.55,0.84,0.33l-0.11,0.39l0.45,0.01c0.29,0.61,0.23,1.07,0.03,1.24c-0.07-0.15-0.34-0.34-0.46-0.47
							c0.24,0.91,1.59,1.94,1.68,2.24l-0.45-0.91c1.82,2.15,4.03,4.86,6.47,6.2l-0.01-0.31c1.82,1,1.14,1.2,3.05,2.42l-0.1-0.01
							c0.48,0.11,1.06,0.31,1.57,0.65c-0.63-0.08,0.65,0.99-0.15,0.85c2.16,0.77,1.12,0.31,2.8,0.28l0.13,0.47
							c0.6-0.08,0.72-0.22,1.75,0.17c-0.96-0.11,0.4,0.82-0.7,0.76c0.45,0.44,0.9,0.71,1.32,0.89c0.43,0.16,0.85,0.2,1.21,0.26
							c0.74,0.1,1.29,0.19,1.61,0.94c1.34-0.6-1.73-1.24-1.09-1.24c-0.35-0.48,1.09-0.42,1.73-0.07c0.67,0.3,0.81,1.62,2.68,2.09
							c-0.18-0.05-0.21,0.02-0.4-0.03c0.65,0.41,1.43,0.06,2.22,0.58c0.6-0.54,1.13,0.21,1.39-0.55l-1.75-0.08
							c1.03-0.05,2.05-0.83,3.56-0.15c-0.14,0.14-0.63,0.28-0.98,0.34c0.44,0.29,0.91,0.01,1.38,0.27
							c-0.23,0.82-2.11-0.13-3.26,0.32c0.46,0.41,2.09-0.26,1.44,0.51c0.46-0.48,0.92-0.38,1.44-0.23c0.53,0.1,1.13,0.23,1.8-0.15
							l-0.11,0.47c0.21-0.06,0.65-0.27,1.02-0.24l-0.71,0.58c1.08-0.48,2.05,0.6,3.08,0.22c-1.08,0.06-1.19-0.09-1.16-0.28
							c0.04-0.19,0.22-0.41-0.22-0.61c2.57-0.71,1.52,1.2,4.49,0.8c-0.4,0.12-1.53-0.2-0.92-0.44c0.57,0.09,1.32,0.16,1.7,0.35
							c1.93-0.39-0.36-0.44,0.42-0.85c0.74,0.47,0.91-0.38,1.7-0.69l0.09,0.47c0.56,0,0.86-0.09,1.03-0.22
							c0.17-0.12,0.21-0.26,0.24-0.39c0.06-0.27,0.09-0.52,1.09-0.58l-0.65,0.86l0.96-0.43l-0.07,0.58c0.99-0.7,1.37-0.61,2.47-0.85
							c-0.35-0.24-0.14-0.88,0.76-1.23c0.72,0.04-0.19,0.56,1.08,0.02c-0.18,0.39-0.38,0.86-1.1,0.65c-0.01,0.17-0.19,0.39-0.2,0.56
							c0.79,0.06,1.75-0.56,2.22-0.74c-0.19,0.05-0.42,0.11-0.56,0.09c0.28-0.22,0.55-0.43,0.82-0.67l0.77-0.74
							c0.36,0.03,0.2,0.27,0.03,0.51c0.35-0.23,0.51-0.55,1.03-0.85c0.03,0.42,0.25,0.77-0.46,1.31l1.56-1.24
							c0.2,0.1,1.12-0.04,0.96,0.2c1.05-0.38,1.91-2.01,3.25-2.55c0.02-0.11,0.09-0.26,0.3-0.48c0.56-0.36,1.15-0.63,1.72-0.98
							c0.28-0.18,0.57-0.36,0.83-0.61c0.25-0.26,0.48-0.57,0.68-0.93l1.14-0.09c0.82-0.96-1.5,0.17-0.16-1.41
							c0.91-1.14,0.83,0.07,1.33-0.16c0.25-0.8,0.55-2.2,1.88-2.81C69.6,65.18,69.28,65.38,69.05,65.72z M76.46,52.52
							c0,0.31,0.08,0.97-0.26,1.07C75.8,53.09,76.13,52.94,76.46,52.52z M76.25,30.12c0.21,0.17,0.21,0.51,0.13,0.91
							C76.27,30.77,76.21,30.47,76.25,30.12z M28.42,7.09c0.01-0.01,0.01-0.02,0.02-0.03C29.04,7.04,28.83,7.04,28.42,7.09z
							 M27.22,7.31c-0.09,0.1-0.06,0.16,0.01,0.21c0.03-0.14,0.29-0.24,0.59-0.32C27.7,7.11,27.52,7.08,27.22,7.31z M31.32,73.5
							l0.2,0.18C30.96,73.69,31.14,73.6,31.32,73.5z"/>
						<path class="st1" d="M77.48,32.46c-0.07,0.1-0.15,0.14-0.24,0.17C77.33,32.73,77.43,32.72,77.48,32.46z"/>
						<path class="st1" d="M62.11,72.23l-0.04,0.02c0,0.04,0,0.07,0.01,0.1L62.11,72.23z"/>
						<path class="st1" d="M46.36,1.49c0.26,0.11,0.4,0.22,0.49,0.33C46.88,1.7,46.78,1.58,46.36,1.49z"/>
						<path class="st1" d="M21.92,10.86l0.58-0.5c-0.3,0.21-0.47,0.19-0.67,0.22C21.9,10.67,22.11,10.73,21.92,10.86z"/>
						<path class="st1" d="M14.66,12.64c-0.05,0.12-0.18,0.18-0.23,0.3l0.18,0.14C14.98,12.73,15.12,12.36,14.66,12.64z"/>
						<path class="st1" d="M20.44,9.88c-0.26-0.29-0.65,0.04-1.04,0.45c0.03-0.02,0.05-0.04,0.08-0.06
							C19.67,10.83,20.03,10.32,20.44,9.88z"/>
						<path class="st1" d="M19.31,10.42c-0.13,0.12-0.26,0.23-0.41,0.32C18.98,10.96,19.09,10.65,19.31,10.42z"/>
						<path class="st1" d="M25.9,8.12c-0.27,0.02,0.07,0.54-0.13,0.46C25.71,9.17,27.05,7.28,25.9,8.12z"/>
						<polygon class="st1" points="19.32,9 19.77,9.31 19.82,8.8 						"/>
						<path class="st1" d="M23.43,7.07l-0.89,0.27c0.05,0.07-0.03,0.16-0.14,0.26C22.92,7.37,23.52,7.19,23.43,7.07z"/>
						<path class="st1" d="M22.41,7.6c-0.26,0.13-0.49,0.29-0.59,0.45C21.95,7.96,22.23,7.76,22.41,7.6z"/>
						<polygon class="st1" points="20.32,8.22 20.6,8.16 21.18,7.86 						"/>
						<path class="st1" d="M32.7,3.99l0.96-0.29c0.07-0.18-0.21-0.25-0.57-0.12C32.87,3.73,32.51,3.85,32.7,3.99z"/>
						<path class="st1" d="M29.41,3.39c0.3,0.03,0.35,0.13,0.54,0.25l-0.13-0.61L29.41,3.39z"/>
						<path class="st1" d="M32.3,2.52c0.06-0.18,1.41-0.72,0.1-0.48C32.32,2.21,31.33,2.56,32.3,2.52z"/>
						<polygon class="st1" points="47.61,3.45 47.35,3.39 47.18,4.4 						"/>
						<path class="st1" d="M61.27,6.61c-0.96-0.87-0.6,0.37-1.41-0.48c-0.38,0.05,0.67,0.7,0.3,0.72
							C60.94,7.02,61.21,7.35,61.27,6.61z"/>
						<path class="st1" d="M60.16,6.84c-0.12-0.03-0.26-0.05-0.41-0.07C59.97,6.83,60.08,6.84,60.16,6.84z"/>
						<polygon class="st1" points="5.39,41.63 5.57,40.91 5.25,41.39 						"/>
						<path class="st1" d="M4.56,40.27l0.64-0.18l-0.61-0.43C4.63,39.83,4.7,40.15,4.56,40.27z"/>
						<path class="st1" d="M78.4,50.74l-0.13-0.1c-0.2,0.08-0.26,0.26-0.38,0.63L78.4,50.74z"/>
						<polygon class="st1" points="73.35,60.83 73.47,60.67 72.78,60.67 						"/>
						<path class="st1" d="M67.97,68.69c0.32-0.24,0.53-0.67,0.81-0.94C68.3,68.47,67.38,68.23,67.97,68.69z"/>
					</g>
				</g>
			</g>
			<g>
				<g>
					<g>
						<path class="st1" d="M-1.92,39.97c0.02-0.38-0.39-0.25-0.47-0.3C-2.27,40.31-1.81,39.95-1.92,39.97z"/>
						<polygon class="st1" points="-0.42,46.15 -0.6,46.07 -0.05,46.9 						"/>
						<path class="st1" d="M0.87,51.82c0.53-0.73-0.64-2-0.66-3.07l0.12-0.2l-0.68-0.33C0.06,49.43,0.82,50.91,0.87,51.82z"/>
						<path class="st1" d="M0.5,55.31c0.19-0.29,0.46,0.56-0.18-0.74c0,0.08-0.01,0.1-0.02,0.15C0.35,54.85,0.42,55.01,0.5,55.31z"
							/>
						<path class="st1" d="M0.31,54.72C0.07,54.13,0.23,55.2,0.31,54.72L0.31,54.72z"/>
						<path class="st1" d="M1.6,57.36l-0.59-0.65C0.93,56.93,1.23,57.62,1,57.42C1.5,58.15,1.56,57.91,1.6,57.36z"/>
						<path class="st1" d="M2.41,57.84L2.13,57.5C2.1,57.6,2.13,57.71,2.41,57.84z"/>
						<path class="st1" d="M1.53,56.77l0.6,0.73c0.05-0.16,0.26-0.27-0.25-0.34C2.1,57.14,1.84,57.06,1.53,56.77z"/>
						<path class="st1" d="M1.41,56.27c-0.07-0.48-0.18-1.07,0.36-0.41C1.12,54.43,0.7,54.84,1.41,56.27z"/>
						<path class="st1" d="M1.67,51.87c0-0.21-0.01-0.41,0.02-0.63l-0.36-0.43c0.09,0.11,0.11,0.4,0.14,0.65
							C1.51,51.72,1.58,51.92,1.67,51.87z"/>
						<path class="st1" d="M3.77,62.11c0.16-0.04,0.2-0.46,0.33-0.61l-0.47-0.43C3.7,61.39,3.93,61.96,3.77,62.11z"/>
						<path class="st1" d="M4.1,61.51l0.7,0.64C4.39,61.44,4.21,61.37,4.1,61.51z"/>
						<polygon class="st1" points="3.18,57.62 2.05,56.53 3.31,57.87 						"/>
						<polygon class="st1" points="5.76,65.05 5.16,64.83 6.15,65.27 						"/>
						<path class="st1" d="M7.25,66.87c-0.49-0.1-0.02,0.72-0.43,0.52c0.48,0.45,1.03,0.69,1.53,0.91C7.91,68,7.55,67.56,7.25,66.87
							z"/>
						<path class="st1" d="M9.15,68.69c-0.23-0.14-0.5-0.26-0.79-0.39C8.59,68.46,8.84,68.6,9.15,68.69z"/>
						<path class="st1" d="M5.59,63.48c-0.03,0.11-0.15,0.36,0.08,0.83l0.13-0.54C5.74,63.68,5.67,63.58,5.59,63.48z"/>
						<path class="st1" d="M5.81,63.75l0,0.02c0.22,0.32,0.38,0.54,0.45,0.64C6.19,64.32,6.06,64.13,5.81,63.75z"/>
						<path class="st1" d="M5.54,63.4c0.02,0.03,0.03,0.05,0.05,0.07C5.61,63.43,5.61,63.4,5.54,63.4z"/>
						<path class="st1" d="M3.93,59.89c0.48,0.34,1.27,1.13,1.03,0.05C4.52,59.76,4.65,60.39,3.93,59.89z"/>
						<path class="st1" d="M5.72,62.75c-0.16-0.27-0.29-0.58-0.43-0.86c-0.09,0.08-0.13,0.32-0.37,0.15
							C5.19,62.28,5.43,62.53,5.72,62.75z"/>
						<polygon class="st1" points="6.11,63.04 5.72,62.75 5.9,63.05 						"/>
						<path class="st1" d="M8.31,67.18c0.42,0.19,0.74,0.52,1.11,0.88c-0.31-0.47-0.66-0.92-1.03-1.32
							C8.25,66.77,7.9,66.75,8.31,67.18z"/>
						<path class="st1" d="M7.07,65.53c0.02,0.02,0.05,0.04,0.08,0.06C7.14,65.52,7.12,65.47,7.07,65.53z"/>
						<polygon class="st1" points="13.1,71.56 13.09,71.45 13.03,71.49 						"/>
						<path class="st1" d="M8.4,66.62c-0.22-0.36-0.46-0.48-0.72-0.57c0.24,0.2,0.48,0.43,0.72,0.69C8.47,66.72,8.5,66.7,8.4,66.62z
							"/>
						<path class="st1" d="M10.28,69.58c-0.11-0.21-0.23-0.44-0.35-0.68C9.97,69.17,10.14,69.61,10.28,69.58z"/>
						<path class="st1" d="M7.14,65.77l-0.05-0.04C7.1,65.9,7.12,65.86,7.14,65.77z"/>
						<path class="st1" d="M7.14,65.77c0.18,0.13,0.36,0.2,0.54,0.28c-0.18-0.18-0.36-0.34-0.53-0.46
							C7.16,65.65,7.15,65.72,7.14,65.77z"/>
						<path class="st1" d="M16,70.33c-0.28,0.26-1.4-0.02-1.76-0.98c-0.84-0.36-1.29,0.99-1.15,2.1c0.14-0.12,0.22-0.21,1.12,0.17
							c-0.16-0.33-1.25-1.73-0.44-1.48c1.04,0.66,0.69,0.73,1.02,1.27c-0.09-0.69,1.68,0.36,1.89-0.39l-0.99-0.42
							C15.75,70.51,16.16,70.59,16,70.33z"/>
						<path class="st1" d="M11.77,70.2l-0.32-0.23c0.28,0.35,0.41,0.68,0.65,1.32c0.62,0.3,0.81,0.28,0.93,0.21l-1.4-1.34
							L11.77,70.2z"/>
						<path class="st1" d="M10.16,68.76c0.5-0.06,1.34,0.41,1.24-0.3c-0.83-0.76-0.8-0.31-1.4-0.68c1.32,1.28-0.53-0.23,0.19,0.93
							c-0.3-0.22-0.54-0.45-0.76-0.66c0.19,0.28,0.36,0.57,0.51,0.85c0-0.02-0.01-0.03-0.01-0.05l-0.01-0.01l0.01,0
							c-0.02-0.1-0.01-0.14,0.03-0.05c0.01,0,0.02,0.02,0.03,0.02C10.04,68.79,10.1,68.77,10.16,68.76c0.3,0.46-0.02,0.14-0.17,0.05
							c-0.02,0.01-0.04,0.01-0.06,0.03l0,0.01c0.47,0.42,1.02,0.74,1.52,1.11C11.2,69.65,10.8,69.36,10.16,68.76z"/>
						<path class="st1" d="M6.25,60.27c0,0.07-0.03,0.08-0.06,0.1C6.3,60.44,6.35,60.46,6.25,60.27z"/>
						<path class="st1" d="M6.41,61.04c-0.12-0.08-0.32-0.08-0.5-0.46c-0.08-0.38,0.18-0.11,0.29-0.2c-0.23-0.15-0.73-0.6-0.49,0.19
							l0.12,0.08c0.25,0.69,0.29,1.79,0.18,1.72C6.21,61.96,6.34,61.65,6.41,61.04z"/>
						<path class="st1" d="M8.17,64.93c0.34,0.37,0.75,0.69,1.14,1.01l-0.23-0.81l-0.15,0.17C8.46,64.6,8.38,64.9,8.17,64.93z"/>
						<path class="st1" d="M13.09,71.85l-0.45,0.21c0.35,0.05,0.75,0.04,1.12,0.06L13.09,71.85z"/>
						<polygon class="st1" points="14.75,73.03 14.45,73.3 15.02,73.43 						"/>
						<path class="st1" d="M71.28,20.95l-0.31-0.29C71.1,20.81,71.2,20.89,71.28,20.95z"/>
						<path class="st1" d="M72.64,23.54l0.21-0.02C72.69,23.44,72.6,23.43,72.64,23.54z"/>
						<path class="st1" d="M61.55,75.04c0.76-0.03,1.73,0.05,1.41-0.28l-0.42-0.25C62.19,74.81,61.86,74.96,61.55,75.04z"/>
						<path class="st1" d="M77.96,47.35L77.8,47.5c0.11,0.18,0.21,0.34,0.3,0.5C78.06,47.8,78.03,47.58,77.96,47.35z"/>
						<path class="st1" d="M76.26,46.58l0.39-0.73C76.53,46.01,76.4,46.24,76.26,46.58z"/>
						<path class="st1" d="M60.19,9.72c-0.21,0.03-0.41,0.05-0.63,0.1C60.15,10.22,60.01,9.87,60.19,9.72z"/>
						<path class="st1" d="M33.76,80.74c0.54,0.25,0.99,0.39,1.39,0.47C34.48,80.86,33.99,80.41,33.76,80.74z"/>
						<path class="st1" d="M75.91,19.71c-0.21-0.2-0.35-0.26-0.43-0.2C75.69,19.71,75.84,19.81,75.91,19.71z"/>
						<path class="st1" d="M36.81,81.32c-0.1-0.05-0.2-0.08-0.3-0.12c-0.43,0.04-0.86,0.11-1.37,0.01
							C35.63,81.47,36.22,81.58,36.81,81.32z"/>
						<path class="st1" d="M9.26,19.16c-0.04,0.02-0.07,0.06-0.11,0.08C9.19,19.28,9.22,19.23,9.26,19.16z"/>
						<path class="st1" d="M-1,34.2c0-0.19,0.05-0.49,0.08-0.77C-0.96,33.56-1,33.79-1,34.2z"/>
						<path class="st1" d="M21.63,77.42C21.23,77.25,21.55,77.43,21.63,77.42L21.63,77.42z"/>
						<path class="st1" d="M20.56,74.99c0.1,0,0.19-0.03,0.25-0.11C20.73,74.96,20.64,74.99,20.56,74.99z"/>
						<path class="st1" d="M41.01,78.69c0.01,0,0.02,0,0.03,0C40.92,78.62,40.94,78.63,41.01,78.69z"/>
						<path class="st1" d="M21.13,76.96c0.12,0.12,0.27,0.24,0.44,0.36C21.51,77.24,21.37,77.13,21.13,76.96z"/>
						<path class="st1" d="M21.12,77.18c-0.13-0.08-0.23-0.14-0.32-0.2C20.72,77.02,20.74,77.08,21.12,77.18z"/>
						<path class="st1" d="M22.18,77.66c-0.23-0.1-0.42-0.22-0.61-0.34c0.06,0.06,0.09,0.1,0.06,0.1
							C21.75,77.47,21.91,77.54,22.18,77.66z"/>
						<path class="st1" d="M34.7,2.18c-0.03-0.01-0.06-0.01-0.09-0.03C34.25,2.39,34.41,2.34,34.7,2.18z"/>
						<path class="st1" d="M66.85,64.89c-0.01,0.02-0.01,0.03-0.01,0.05c0.02-0.01,0.04-0.02,0.05-0.03L66.85,64.89z"/>
						<path class="st1" d="M67.53,63.66c0.02,0.78-0.27,0.99-0.65,1.24l1.23,0.5C67.93,64.82,67.74,64.23,67.53,63.66z"/>
						<path class="st1" d="M67.05,15.38l0.35,0.96c-1.26-0.42-1.62-1.16-1.45-0.15c0.53-0.39,1.23,0.22,1.8,0.93
							c0.57,0.71,1.14,1.42,1.74,1.08l0.14,0.67c-0.1-0.15-0.18-0.13-0.28-0.28c0.2,1.33,1.34,0.17,2.03,1.65
							c0.2,0.53,0.23,0.96-0.1,0.72l0.93,0.89c0.16,0.32-0.09,0.36-0.25,0.04c0.35,0.52,0.62,1.09,0.93,1.63l-0.04,0
							c0.31,0.15,0.87,0.56,1.13,0.78c0.03,0.52-0.24-0.16-0.34,0.02c0.25,0.27,0.52,0.54,0.75,0.82c-0.09,0.27-0.28,0.23-0.49,0.04
							c-0.22-0.18-0.46-0.51-0.6-0.84c-0.41,0.72-0.24,0.87,0.06,1.13c0.26,0.27,0.65,0.66,0.63,1.77l-0.49-0.85
							C73,27.25,73.52,27.85,73.43,29c0.16-0.29,0.39-2.43,1.1-1.5c0.01,0.34,0.12,0.73,0.57,1.23c-0.46,0.15-0.2,0.69,0.01,1.4
							l-0.63,0.12c0.37,0.72,0.68,0.58,1.07,0.97c0.16,0.88-0.27,1.16-0.66,1.45c0.11,1.41,0.63-1.12,1,0.52
							c-0.03,0.61,0.05,1.11,0.21,1.63c0.16,0.52,0.44,1.06,0.64,1.77c-0.18,0.86-0.4-0.12-0.56,0.2l0.55,0.71
							c0,0.18-0.16,0.13-0.24,0.11c0.23,0.62,0.64,0.02,0.87,1.01c0.35,0.13,0.15,0.65-0.11,1.29c-0.28,0.63-0.55,1.36-0.18,2
							c-0.2,0.29-0.38-0.17-0.64-0.09c0.44,1.71,0.34,1.46,0.82,2.93l-0.6,1.12c0.61-0.79,1,0.4,1.3,1.5
							c0.28-0.27,0.52-0.51,0.64-0.68c0.03,0.56,0.07,1.13,0.02,1.68c-0.15,0.17-0.32-0.04-0.52-0.36c0.02,0.12,0.05,0.23,0.08,0.32
							c-0.38,0.51-0.66,0.13-0.91-0.34l0.53-0.48c-0.32-0.47-0.69-0.91-1.07-0.9c0.06,0.11,0.09,0.32,0.09,0.54
							c-0.09-0.12-0.17-0.2-0.24-0.17c-0.08,0.04,0.06,0.23,0.14,0.51l-0.79,0.19l0.26,0.14l-0.94,1.85c0.08,0.4,0.19,0.79,0.29,1.2
							c0.07,0.4,0.14,0.81,0.19,1.25c0.08,0.87,0.12,1.88-0.22,3.05c-0.22-0.74-0.73-0.45-1.28-0.73c0.86-0.33,0.37-1.79,0.91-2.85
							c-0.28,0.56-0.51,0.33-0.55,0.15l-0.17,2.2c-0.45-0.24-0.5,0.28-0.95,0.69c1.1,0.03-0.09,1.71-0.19,2.64
							c-0.32-0.11-0.54-0.46-0.01-1.37c-1.19,0.69,0.43,1.93-0.77,2.61c0.13-0.23,0.25-0.32,0.15-0.49
							c-0.06,0.67-1.04,1.83-1.11,1.37l0.13-0.22c-0.25,0.35-0.54,0.81-0.83,1.3c-0.31,0.48-0.67,0.97-0.96,1.46
							c-0.58,0.97-0.95,1.9-0.73,2.26c-0.09-0.06-0.63-0.82-0.71-1.02c0.08,1.37,0.07,2.77,0.03,4.25
							c-0.35-0.71-2.29-1.15-1.64-2.48c-0.36,0.22-0.74,0.54-1.19,1.3c0.28-0.1,1.26,0.27,1.02,0.59c-1.35,0.13-0.86,0.19-2.28,0.55
							c0.41-0.16,0.84,1,0.31,1.43c-0.03-0.2-0.78-0.82-0.68-1.07c-0.15,0.65-0.32,1.32-0.55,1.93c0.21-0.41-0.54-0.79-1.03-0.82
							c0.27,0.07-1.14,0.83-1.42,1.18l0.71-0.2c-1.56,0.99-0.61,2.37-2.28,3.33c0.08-0.32-0.26-1.51-1.13-1.15
							c-0.04,0.35-0.09,1.24-0.35,2.12c-0.27,0.88-0.72,1.83-1.43,2.42l-0.44-0.15c-0.35,0.31-0.7,0.63-1.09,0.89
							c0.25-0.52,0.68-1.51,1.15-2.45c0.46-0.95,0.94-1.87,1.3-2.45c-0.74,0.08-0.35-0.26-1.26,0.22c-0.46-0.12,0.29-0.66,0.55-0.8
							l-2.2,0.84c0.19,0.28-0.15,0.63-0.5,0.98c-0.36,0.31-0.75,0.59-0.6,0.84c0.75-0.48,1.42-1.12,2.09-1.69
							c0.19,0.28,0.06,0.87-0.34,1.48c-0.2,0.3-0.46,0.64-0.79,0.88c-0.33,0.24-0.72,0.44-1.15,0.56c-0.51-0.1-0.11-1.23-0.23-1.43
							c-0.12,0.29-1.37,0.97-1.57,0.87L52,74.51c-0.48,0.04-0.77,0.39-1.11,0.7c-0.33,0.3-0.74,0.51-1.37,0.35
							c-0.4,0.06-1.34-0.55-1.31-0.14c0.79,0.59,1.54,2.85,1.22,3.52c-0.08-0.01-0.67-0.04-1.3-0.11c-0.62-0.05-1.31-0.27-1.57-0.4
							c-0.77-0.49,0.74-1.56,0.08-1.98c0.01,0.18-0.31,0.46-0.45,0.56c-0.44-0.09,0.07-0.59-0.81-0.37
							c-0.05,0.7-1.84,0.22-0.34,0.64c-0.87,0.31-0.96,0.06-2,0.15c0.38,0.42-0.83,1.54-1.77,1.78c0.05-0.18-0.17-0.39-0.27-0.49
							c-0.47,0.01-0.89,0-1.28-0.02c-0.39-0.04-0.74-0.12-1.1-0.17c-0.7-0.12-1.39-0.24-2.26-0.28c-0.15-0.17-0.96-0.43-0.58-0.69
							c-0.26,0.09-0.51,0.28-1.04,0.21c-0.94-0.74,1.18,0.09,0.49-0.73c-0.11,0.38-1.42,0.33-2.21,0.46
							c0.13,0.64,1.74,0.38,2.51,0.25c-0.08,0.84-1.52,1.52-3.49,1.61c-1.53-0.07-0.53-0.67-0.81-0.59
							c-1.34-0.42-2.02-0.21-2.63-0.05c-0.61,0.16-1.18,0.3-2.2-0.42c-0.71-0.83,0.31-1.02,0.25-1.46c0.6,0.11,1,0.36,1.36,0.59
							c0.37,0.21,0.69,0.42,1.09,0.52l-0.91-0.5c0.42-0.07,1.23-0.01,1.61,0.25c-0.62-0.58-4.46-1.4-6.18-2.75
							c-0.41,0-1.08-0.11-0.9,0.22l0.64,0.23c0.39,0.67-1.41-0.01-0.72,0.54c-0.48-0.06-1.01-0.1-1.56-0.23
							c-0.27-0.06-0.55-0.14-0.83-0.26c-0.26-0.14-0.52-0.32-0.77-0.54l0.1-0.66c-0.07,0.17,0.55,0.76,0.95,0.78
							c-0.61-0.05-1.28-1.75-2.2-1.37l0.56,0.84c-0.94-0.24-2.36-0.24-3.18-1.16c0.09,0.82,0.25,0.11,0.54,1.19
							c-0.14-1.12,2.6,1.63,2.08,0.23c0.33,1.13,1.07,1.12,1.78,2.24c0.06-0.19-0.19-0.52,0.68,0.01c0.07-0.03,0.2-0.05,0.28-0.06
							c0.02,0.02,0.03,0.03,0.05,0.04l-0.04-0.05c0.05-0.01,0.06-0.01-0.01-0.02c-0.18-0.18-0.3-0.36-0.32-0.5
							c0.66-0.2,2.06,0.5,2.64,0.51c0.49,0.34-0.31,0.11-0.11,0.44c0.29,0.01,0.57,0.01,0.87-0.02c-0.1,0.44,1.2,1.24-0.22,1
							l1.18,0.46c0.61,0.49,1.56,0.96,2.22,0.97c0.56,0.25,1.6-0.1,1,0.11l1.99,0.23l-0.01,0.11c0.94,0.31,1.98,0.23,3.01,0.31
							c1.04,0.05,2.08,0.27,3.17,0.69c0.67-0.08,1.35-0.18,2.44,0l0.21,0.4c0.84-0.08,2.57,0.29,2.92-0.11
							c0.24,0.25,0.63,0.37,1.1,0.42c0.47,0.06,1.01,0.02,1.56-0.11c1.1-0.22,2.25-0.55,3.02-0.58l-0.04-0.51
							c1.02-0.16,1.94-0.59,3.11-1.09l-0.2-0.41c0.96-0.56,2.74-0.54,4.36-1.17c-0.05,0.2-0.48,0.31-0.8,0.32
							c0.57,0.06,1.11-0.05,1.61-0.25c0.49-0.23,0.93-0.56,1.36-0.89c0.86-0.68,1.69-1.29,2.66-1.46c0.32-0.38,0.63-0.51,0.97-0.58
							c-0.04,0.02-0.07,0.05-0.09,0.08c0.04-0.02,0.1-0.06,0.17-0.09c0.22-0.04,0.44-0.07,0.68-0.13c-0.23,0.01-0.43,0.03-0.59,0.08
							c0.3-0.19,0.74-0.53,1.13-0.9l0.46,0.28c0.03-0.03,0.06-0.05,0.1-0.08c0.55-0.13,0.23-0.41-0.21-0.57
							c0.19-0.2,0.32-0.44,0.41-0.64c0.79,0.38,0.95-1.04,1.91-0.72c0.02-0.27,0.51-0.73,0.95-1.22c0.4-0.54,0.75-1.11,0.57-1.52
							c0.09,0.07,0.24,0.01,0.03,0.2c0.49-0.32,0.99-0.64,1.21-1.16l0.61,0.27c0.13-0.48,0.24-0.97,0.32-1.48
							c0.78-0.31,1.17-0.41,0.98,0.49c0.72-1.88,0.84-1.31,1.33-2.95l0.26,0.31c0.33-0.46,0.45-1.51,0.91-1.58
							c1.47-0.51,3.6-5.08,5.5-7.8c-0.68,0.05-0.38-0.23-0.04-0.6c0.31-0.38,0.7-0.85,0.3-1.07c0.32-0.08,0.63-0.46,0.67,0.13
							c0.31-1.67,1.35-2.24,0.87-3.6c0.31-0.11,0.3,0.46,0.5,0.34c-0.02-0.15-0.1-0.59,0.11-0.71c0.2-0.12,0.16,0.3,0.21,0.6
							c0.4-1.71-0.39-2.07-1.14-2.37c0.29-0.37,0.45-0.66,0.49-0.95c0.01-0.29-0.09-0.58-0.3-0.93c0.3-0.24,0.65-0.69,0.58,0.37
							c0.12-0.57,0.95-3.54,0.28-3.66c0.17-0.17,0.09-0.82,0.02-0.98c0.11-1.32,0.17-1.43,0.17-2.73l-0.12,0.36
							c-0.72-0.52-0.17-1.07-0.31-2.11l0.08,0.03c0.22-1.2,0.14-1.46,0.07-1.71c-0.1-0.25-0.06-0.49,0.05-1.7l-0.46,0.18
							c-1.06-0.08,0.29-2.13-0.32-3.44c-0.06,0.18-0.13,0.36-0.19,0.54c-0.44-0.65,0.88-2.33,0.82-3.13
							c0.04-0.19,0.21,0.22,0.33,0.43c0.08-2.13-0.67-0.1-1.19-1.5c0.24-0.36,0.94,0.09,0.69-0.9c0.04-0.28-0.47-0.9-0.98-1.61
							c-0.53-0.71-0.95-1.55-0.99-2.29c-0.11,0.38-0.22,0.75-0.7,0.21c-0.55-0.88-0.33-3.05-1.55-3.48
							c-0.01-0.15,0.03-0.23,0.08-0.26c-0.61-0.59-1.67-2.07-2.29-2.23c0.5-0.77-0.45-1.67-1.31-2.46
							c-0.84-0.82-1.73-1.42-1.15-1.92l-1.74-1.79l0.16-0.06c-1.03-1.23-1.76-1.29-2.4-1.4c-0.2-0.32,0.09-0.25,0.17-0.29
							c-1.48-1.81-1.82-1.84-3.79-2.4l0.13-0.52c-0.29-0.04-0.84-0.72-1.67-1.37c-0.41-0.34-0.88-0.71-1.38-1.03
							c-0.5-0.32-1.04-0.61-1.63-0.71c0.05-0.04,0.13-0.1,0.33-0.09c-1.3-0.28-2.5-1.33-3.69-1.99c-1.19-0.64-2.28-1.08-2.99-0.38
							c-0.57-0.08-1.16-0.03-1.74-0.04c2.04,0.67-0.52,0.67,0.24,1.18c-0.82-0.1-1.94-1.06-0.92-0.9l0.13,0.13
							c0.61-0.8-2.5-1.01-2.32-1.58C43.41-1.11,39.2-1.7,35.13-1.37c0.18,0.22,0.36,0.43,0.54,0.67c-0.46,0.03-0.92,0.1-1.39,0.15
							c-0.38-0.11-0.57-0.49,0.43-0.61c-0.58-0.33-1.63,0.6-1.62,0.76c-1.99,0.01,0.62-0.96,0.02-0.88l-0.81,0.18l0.2,0.06
							c-0.6,0.42-0.62,0.65-1.78,0.94c-0.77,0.05-0.48-0.34-0.78-0.29c-0.01-0.05-0.12-0.05-0.46,0.1l-1.75,0.39l0.85,0.38
							c-0.68,0.46-1.6,0.41-0.64,0.81c-0.71-0.32-2.29,0.19-3.78,0.73c-1.46,0.62-2.78,1.41-3.19,1.41c-0.2,0.21-0.41,0.4-0.63,0.57
							c-0.21,0.19-0.43,0.37-0.66,0.53c-0.47,0.33-0.99,0.63-1.57,0.96c0.35-0.07,0.85,0.38-0.15,0.9
							c-0.18-0.66-0.73-0.55-1.35-0.21c-0.62,0.34-1.34,0.81-2.01,0.71c0.53,0-0.11,0.53-0.67,1.04c-0.56,0.52-0.98,1.11-0.21,1
							c-0.78,0.56-0.37-0.34-1.12-0.09c-0.34,0.49-0.76,0.92-1.23,1.34c-0.24,0.2-0.48,0.41-0.73,0.62
							c-0.24,0.22-0.48,0.45-0.73,0.67c-0.98,0.92-2.13,1.8-2.88,3.04c0.11,0.14,0.61-0.07,0.45,0.57L5.9,15.76
							c-0.25,0.52,0.48,0.96-0.55,1.51c0.2-0.04,0.5-0.1,0.35,0.25c-1.85,2.1-3.07,4.74-4,7.42c-0.44,1.36-0.98,2.68-1.37,4.05
							c-0.22,0.68-0.47,1.35-0.76,2.02c-0.3,0.67-0.5,1.35-0.83,2.03c0.45-0.71,0.41-0.19,0.33,0.39c0.14-0.37,0.43,0.08,0.67,0.04
							c-0.33,0.74-0.7,1.49-0.99,2.26c0.64,0.49-0.09,2.55,0.53,2.82l-0.08-0.75c0.7,1,1.73-1.27,2.67-1.04
							c-0.2-0.27-0.21-0.58-0.14-0.91c0.1-0.32,0.31-0.67,0.49-1.03c0.38-0.72,0.73-1.5,0.26-2.45c0.25-0.33,0.26,0.37,0.5,0.22
							c-0.36-0.5-0.29-1.02,0.13-1.91l0.07,0.13c0.3-1.31,0.55-2.24,1.05-3.12c0.23-0.44,0.47-0.9,0.74-1.41
							c0.27-0.51,0.53-1.08,0.94-1.71l-0.53,0.01c0.34-0.56,0.53-0.61,0.77-0.83c-0.33-0.98-0.82,1.61-1.25,0.68
							c0.63-0.2,1.13-1.21,1.62-2.2c0.52-0.97,1.16-1.84,1.76-1.81c0.51-0.84-0.62-0.04-0.1-0.88l0.38-0.06l-0.19-0.42
							c0.38-0.53,0.93-0.55,1.13-0.43c-0.12,0.11-0.21,0.39-0.29,0.54c0.78-0.46,1.3-1.94,1.57-2.1l-0.71,0.64
							c0.35-0.57,0.73-1.18,1.19-1.73c0.48-0.54,0.98-1.09,1.47-1.64c0.24-0.28,0.49-0.56,0.73-0.83c0.26-0.25,0.52-0.51,0.77-0.77
							c0.49-0.52,0.95-1.05,1.33-1.61l-0.29-0.04c0.3-0.43,0.55-0.67,0.78-0.83c0.23-0.17,0.42-0.26,0.61-0.35
							c0.4-0.19,0.83-0.36,1.65-1.1l-0.03,0.09c0.21-0.47,0.67-0.85,1.2-1.15c-0.33,0.51,1.16-0.11,0.69,0.51
							c1.62-1.49,0.7-0.88,1.58-2.3l0.47,0.18c0.29-0.51,0.25-0.69,1.22-1.26c-0.69,0.69,0.88,0.2,0.14,1.03
							c0.6-0.07,1.07-0.24,1.46-0.45c0.4-0.19,0.73-0.39,1.03-0.59c0.6-0.39,1.08-0.68,1.76-0.3c0.67-1.34-2.06,0.15-1.58-0.26
							c-0.6-0.14,0.57-1.03,1.3-1.19c0.72-0.27,1.62,0.89,3.37,0.4c-0.18,0.04-0.17,0.12-0.35,0.16c0.36,0.04,0.67-0.13,1-0.28
							c0.33-0.17,0.69-0.3,1.15-0.14c0.36-0.68,1.09-0.13,1.1-0.93l-1.66,0.44c0.9-0.35,1.69-1.4,3.36-1.2
							c-0.11,0.18-0.56,0.46-0.87,0.63c0.49,0.17,0.87-0.32,1.38-0.1c-0.06,0.75-2.03,0.47-2.95,1.21c0.54,0.26,1.82-0.86,1.44,0.07
							c0.29-0.6,0.74-0.63,1.26-0.64c0.52,0.03,1.1,0.11,1.7-0.34l-0.05,0.48c0.19-0.08,0.59-0.33,0.95-0.34L37.8,3.17
							c0.98-0.57,1.92,0.32,2.85,0.13c-0.99-0.05-1.1-0.19-1.07-0.37c0.03-0.19,0.21-0.43-0.22-0.58c2.52-0.56,1.41,1.29,4.13,1.21
							c-0.37,0.02-1.37-0.36-0.77-0.56c0.52,0.1,1.19,0.39,1.47,0.69c1.8,0.18-0.21-0.53,0.59-0.7c0.54,0.67,0.92-0.1,1.77-0.15
							L46.49,3.3c0.51,0.14,0.8,0.18,0.99,0.17c0.19-0.03,0.28-0.13,0.36-0.24c0.16-0.21,0.3-0.42,1.19,0.01l-0.94,0.45l1,0.08
							l-0.33,0.48c0.56-0.06,0.93-0.05,1.26,0.03c0.34,0.08,0.66,0.22,1.12,0.49c-0.12-0.41,0.4-0.78,1.3-0.47
							c0.5,0.49-0.49,0.31,0.78,0.7c-0.39,0.18-0.82,0.42-1.21-0.19c-0.11,0.13-0.37,0.18-0.48,0.31c0.52,0.54,1.56,0.65,2.01,0.81
							c-0.16-0.08-0.36-0.18-0.44-0.28c0.34,0.01,0.68,0,1.02,0.02l1,0.11c0.2,0.3-0.08,0.32-0.35,0.35
							c0.37,0.12,0.7,0.04,1.23,0.25c-0.3,0.29-0.45,0.67-1.24,0.49l1.8,0.39c0.04,0.2,0.6,0.82,0.32,0.84
							c0.7,0.72,2.47,0.58,3.41,1.58c0.1-0.02,0.25,0,0.51,0.12c0.47,0.41,0.86,0.88,1.31,1.29c0.22,0.21,0.47,0.4,0.74,0.58
							c0.26,0.2,0.56,0.38,0.92,0.52l0.14,1.08c0.96,0.65-0.24-1.42,1.37-0.31c1.17,0.77-0.04,0.77,0.16,1.24
							c0.69,0.24,2.04,0.65,2.45,1.95C67.49,15.94,67.35,15.63,67.05,15.38z M74.53,27.48c-0.19-0.23-0.67-0.64-0.48-0.93
							C74.68,26.65,74.52,26.98,74.53,27.48z M76.52,49.28c-0.1-0.25,0.06-0.54,0.33-0.86C76.82,48.69,76.73,48.98,76.52,49.28z
							 M26.14,78.85c0.02,0,0.03-0.01,0.04-0.01C26.77,79.26,26.56,79.1,26.14,78.85z M24.85,78.16c-0.16,0.01-0.18,0.08-0.14,0.16
							c0.14-0.08,0.45,0.03,0.78,0.18C25.44,78.35,25.29,78.21,24.85,78.16z M29.83-0.2l0.3,0.05C29.55,0.15,29.69-0.02,29.83-0.2z"
							/>
						<path class="st1" d="M76.46,46.67c0.09-0.06,0.18-0.07,0.28-0.07C76.67,46.48,76.58,46.46,76.46,46.67z"/>
						<path class="st1" d="M60.3,9.7l-0.03-0.03c-0.04,0.01-0.06,0.03-0.08,0.05L60.3,9.7z"/>
						<path class="st1" d="M46.09,76.26c0.28,0.03,0.44,0.09,0.56,0.17C46.63,76.31,46.49,76.23,46.09,76.26z"/>
						<path class="st1" d="M17.59,75.46l0.87,0.38c-0.4-0.22-0.48-0.39-0.64-0.57C17.78,75.37,17.85,75.61,17.59,75.46z"/>
						<path class="st1" d="M13.14,68.33c-0.13-0.04-0.2-0.18-0.34-0.22l-0.13,0.19C13.09,68.66,13.49,68.78,13.14,68.33z"/>
						<path class="st1" d="M17.72,73.66c0.17-0.39-0.42-0.52-0.95-0.86c0.03,0.02,0.06,0.04,0.09,0.07
							C16.38,73.23,17.03,73.49,17.72,73.66z"/>
						<path class="st1" d="M16.64,72.73c-0.17-0.1-0.33-0.21-0.47-0.34C15.98,72.52,16.33,72.57,16.64,72.73z"/>
						<path class="st1" d="M23.04,77.73c-0.24-0.23-0.39,0.39-0.48,0.16C22.05,78.23,24.69,78.19,23.04,77.73z"/>
						<polygon class="st1" points="18.02,72.28 17.94,72.81 18.45,72.65 						"/>
						<path class="st1" d="M22.06,75.01l-0.83-0.55c-0.03,0.08-0.16,0.07-0.32,0.04C21.46,74.77,22.02,75.15,22.06,75.01z"/>
						<path class="st1" d="M20.92,74.49c-0.28-0.16-0.53-0.32-0.73-0.33C20.34,74.24,20.66,74.43,20.92,74.49z"/>
						<polygon class="st1" points="19.25,72.85 19.44,73.09 20.01,73.48 						"/>
						<path class="st1" d="M32.07,78.55l1.09,0.02c0.14-0.15-0.14-0.3-0.54-0.29C32.35,78.35,31.94,78.36,32.07,78.55z"/>
						<path class="st1" d="M29.26,76.45c0.25,0.17,0.23,0.28,0.35,0.48l0.19-0.59L29.26,76.45z"/>
						<path class="st1" d="M32.25,77.04c0.14-0.15,1.57-0.26,0.28-0.42C32.39,76.79,31.34,76.73,32.25,77.04z"/>
						<polygon class="st1" points="47.99,77.64 47.73,77.72 47.98,78.7 						"/>
						<path class="st1" d="M59.59,70.16c-1.14,0.41,0.1,0.68-0.98,0.98c-0.12,0.35,0.88-0.25,0.75,0.08
							C59.84,70.62,60.24,70.55,59.59,70.16z"/>
						<path class="st1" d="M59.35,71.21c-0.08,0.09-0.16,0.2-0.24,0.32C59.26,71.37,59.32,71.28,59.35,71.21z"/>
						<polygon class="st1" points="-1.83,37.28 -2.09,38.14 -1.72,37.59 						"/>
						<path class="st1" d="M-1.16,38.95l-0.66,0.19l0.56,0.52C-1.27,39.47-1.31,39.1-1.16,38.95z"/>
						<path class="st1" d="M73.93,29.87l0.16,0.01c0.13-0.16,0.1-0.33,0.04-0.68L73.93,29.87z"/>
						<polygon class="st1" points="70.24,20.47 70.32,20.62 70.64,20.03 						"/>
						<path class="st1" d="M64.36,14.35c0.25,0.24,0.61,0.44,0.82,0.72C64.62,14.57,64.79,13.77,64.36,14.35z"/>
					</g>
				</g>
			</g>
		</g>
	</g>
</g>
</svg>
